<svg width="345" height="346" viewBox="0 0 345 346" fill="none" xmlns="http://www.w3.org/2000/svg">
<circle cx="172.427" cy="172.9" r="172.427" fill="url(#paint0_linear_1241_19822)"/>
<path d="M308.401 263.915C308.401 264.712 308.244 265.501 307.938 266.238C307.633 266.975 307.185 267.644 306.62 268.208C306.055 268.772 305.385 269.219 304.647 269.524C303.909 269.829 303.118 269.986 302.32 269.986H54.8505C53.2376 269.986 51.6908 269.346 50.5503 268.208C49.4098 267.069 48.7691 265.525 48.769 263.915C48.769 263.117 48.9263 262.328 49.2319 261.591C49.5375 260.854 49.9855 260.185 50.5502 259.621C51.1149 259.057 51.7853 258.61 52.5232 258.305C53.261 258 54.0518 257.843 54.8505 257.843H302.32C303.118 257.843 303.909 258 304.647 258.305C305.385 258.61 306.055 259.057 306.62 259.621C307.185 260.185 307.633 260.854 307.938 261.591C308.244 262.328 308.401 263.117 308.401 263.915Z" fill="#E3EDFD"/>
<path d="M161.444 106.086L173.011 103.225C173.011 103.225 175.662 105.128 173.389 107.954C173.257 108.117 161.444 106.086 161.444 106.086Z" fill="#E3EDFD"/>
<path d="M161.444 106.086L173.011 103.225C173.011 103.225 175.662 105.128 173.389 107.954C173.257 108.117 161.444 106.086 161.444 106.086Z" stroke="#7BB1F1" stroke-width="1.19242" stroke-miterlimit="10"/>
<path d="M160.005 99.6564L167.648 90.5297C167.648 90.5297 170.914 90.5018 170.75 94.1227C170.74 94.3325 160.005 99.6564 160.005 99.6564Z" fill="#E3EDFD"/>
<path d="M160.005 99.6564L167.648 90.5297C167.648 90.5297 170.914 90.5018 170.75 94.1227C170.74 94.3325 160.005 99.6564 160.005 99.6564Z" stroke="#7BB1F1" stroke-width="1.19242" stroke-miterlimit="10"/>
<path d="M155.32 100.221L151.828 88.8462C151.828 88.8462 153.585 86.0986 156.536 88.211C156.706 88.3339 155.32 100.221 155.32 100.221Z" fill="#E3EDFD"/>
<path d="M155.32 100.221L151.828 88.8462C151.828 88.8462 153.585 86.0986 156.536 88.211C156.706 88.3339 155.32 100.221 155.32 100.221Z" stroke="#7BB1F1" stroke-width="1.19242" stroke-miterlimit="10"/>
<path d="M177.173 252.561L166.721 253.378C166.721 253.378 164.694 251.345 167.076 249.22C167.214 249.097 177.173 252.561 177.173 252.561Z" fill="#E3EDFD"/>
<path d="M177.173 252.561L166.721 253.378C166.721 253.378 164.694 251.345 167.076 249.22C167.214 249.097 177.173 252.561 177.173 252.561Z" stroke="#7BB1F1" stroke-width="1.19242" stroke-miterlimit="10"/>
<path d="M177.493 258.348L169.542 265.169C169.542 265.169 166.704 264.723 167.369 261.604C167.408 261.423 177.493 258.348 177.493 258.348Z" fill="#E3EDFD"/>
<path d="M177.493 258.348L169.542 265.169C169.542 265.169 166.704 264.723 167.369 261.604C167.408 261.423 177.493 258.348 177.493 258.348Z" stroke="#7BB1F1" stroke-width="1.19242" stroke-miterlimit="10"/>
<path d="M181.641 258.533L183.029 268.907C183.029 268.907 181.107 271.039 178.851 268.781C178.721 268.65 181.641 258.533 181.641 258.533Z" fill="#E3EDFD"/>
<path d="M181.641 258.533L183.029 268.907C183.029 268.907 181.107 271.039 178.851 268.781C178.721 268.65 181.641 258.533 181.641 258.533Z" stroke="#7BB1F1" stroke-width="1.19242" stroke-miterlimit="10"/>
<path d="M130.207 204.365H128.637L127.983 208.357H126.042L126.696 204.365H124.531V202.583H126.988L127.418 200.013H125.262V198.231H127.71L128.383 194.18H130.314L129.651 198.231H131.221L131.894 194.18H133.835L133.162 198.231H135.415V200.013H132.869L132.44 202.583H134.674V204.365H132.148L131.494 208.357H129.553L130.207 204.365ZM128.929 202.583H130.499L130.928 200.013H129.358L128.929 202.583Z" fill="#E3EDFD"/>
<path d="M97.5763 260.956C96.7547 260.946 95.9693 260.616 95.3883 260.036C94.8072 259.456 94.4766 258.672 94.4671 257.851V246.124H58.1934C57.3718 246.115 56.5865 245.785 56.0055 245.205C55.4245 244.624 55.094 243.84 55.0845 243.02V230.833C55.0845 228.841 55.5835 227.193 56.5815 225.889L91.0123 182.545C91.7032 181.702 92.3366 181.147 92.9125 180.878C93.488 180.61 94.2749 180.476 95.2732 180.475H112.661C113.483 180.485 114.268 180.815 114.849 181.395C115.43 181.975 115.761 182.759 115.77 183.58V227.729H125.674C126.495 227.738 127.28 228.069 127.861 228.649C128.442 229.229 128.773 230.013 128.783 230.833V243.02C128.773 243.84 128.443 244.624 127.862 245.204C127.281 245.785 126.495 246.115 125.674 246.124H115.77V257.851C115.761 258.672 115.43 259.456 114.849 260.036C114.268 260.616 113.483 260.946 112.661 260.956H97.5763ZM95.0427 227.729V206.574L78.2302 227.729H95.0427Z" fill="#E3EDFD"/>
<path d="M185.411 144.297C191.168 144.297 196.12 145.141 200.266 146.827C204.411 148.514 207.847 150.775 210.572 153.61C213.298 156.449 215.38 159.841 216.675 163.555C218.026 167.389 218.821 171.396 219.036 175.455C219.189 178.751 219.266 182.201 219.266 185.802C219.266 189.406 219.189 192.779 219.036 195.92C218.821 199.978 218.026 203.985 216.675 207.819C215.38 211.534 213.298 214.926 210.572 217.765C207.846 220.601 204.41 222.862 200.266 224.548C196.12 226.233 191.169 227.076 185.411 227.077C179.653 227.077 174.701 226.234 170.556 224.548C166.411 222.863 162.975 220.602 160.25 217.765C157.522 214.927 155.44 211.534 154.147 207.819C152.795 203.986 152 199.979 151.786 195.92C151.631 192.778 151.554 189.405 151.556 185.802C151.556 182.201 151.632 178.751 151.786 175.455C152 171.396 152.795 167.389 154.147 163.555C155.441 159.84 157.523 156.448 160.25 153.61C162.974 150.775 166.409 148.514 170.556 146.827C174.702 145.142 179.653 144.299 185.411 144.297ZM197.732 195.345C198.038 188.831 198.038 182.393 197.732 176.03C197.599 174.245 197.31 172.476 196.869 170.741C196.489 169.22 195.803 167.793 194.853 166.545C193.878 165.315 192.612 164.347 191.168 163.728C189.632 163.038 187.713 162.693 185.411 162.693C183.108 162.693 181.189 163.038 179.653 163.728C178.21 164.347 176.943 165.315 175.968 166.545C175.015 167.798 174.311 169.223 173.895 170.741C173.417 172.466 173.146 174.241 173.089 176.03C172.704 182.462 172.704 188.912 173.089 195.345C173.146 197.13 173.397 198.903 173.838 200.634C174.22 202.165 174.927 203.596 175.91 204.83C176.915 206.054 178.199 207.019 179.653 207.647C181.188 208.337 183.107 208.682 185.411 208.682C187.714 208.682 189.633 208.337 191.168 207.647C192.622 207.019 193.905 206.053 194.911 204.83C195.894 203.595 196.6 202.164 196.984 200.634C197.423 198.903 197.674 197.13 197.732 195.345Z" fill="#E3EDFD"/>
<path d="M274.943 171.634C274.122 171.624 273.336 171.294 272.755 170.714C272.174 170.134 271.844 169.35 271.834 168.53V156.802H235.561C234.739 156.793 233.954 156.463 233.373 155.883C232.792 155.303 232.461 154.519 232.452 153.698V141.511C232.452 139.519 232.951 137.871 233.949 136.567L268.379 93.2232C269.07 92.3807 269.704 91.825 270.279 91.5561C270.855 91.2885 271.642 91.1544 272.64 91.1537H290.029C290.85 91.1632 291.635 91.4934 292.216 92.0735C292.797 92.6536 293.128 93.4376 293.138 94.2579V138.407H303.041C303.862 138.417 304.648 138.747 305.229 139.327C305.81 139.907 306.14 140.691 306.15 141.511V153.698C306.14 154.519 305.81 155.303 305.229 155.883C304.648 156.463 303.862 156.793 303.041 156.802H293.138V168.53C293.128 169.35 292.797 170.134 292.216 170.714C291.635 171.294 290.85 171.624 290.029 171.634H274.943ZM272.41 138.407V117.252L255.597 138.407H272.41Z" fill="#E3EDFD"/>
<path d="M95.5443 252.323C94.7227 252.314 93.9374 251.983 93.3564 251.403C92.7754 250.823 92.4447 250.039 92.4351 249.219V237.492H56.1616C55.34 237.482 54.5547 237.152 53.9737 236.572C53.3927 235.992 53.0621 235.208 53.0527 234.388V222.2C53.0527 220.208 53.5517 218.561 54.5497 217.257L88.9804 173.913C89.6713 173.07 90.3047 172.514 90.8805 172.245C91.4562 171.978 92.2431 171.844 93.2413 171.843H110.63C111.451 171.852 112.236 172.183 112.817 172.763C113.398 173.343 113.729 174.127 113.738 174.947V219.096H123.642C124.464 219.106 125.249 219.436 125.83 220.016C126.411 220.596 126.741 221.38 126.751 222.2V234.388C126.741 235.208 126.411 235.992 125.83 236.572C125.249 237.152 124.464 237.482 123.642 237.492H113.738V249.219C113.729 250.039 113.398 250.823 112.817 251.403C112.236 251.983 111.451 252.314 110.63 252.323H95.5443ZM93.0108 219.096V197.942L76.1985 219.096H93.0108Z" stroke="#7BB1F1" stroke-width="1.19242" stroke-linecap="round" stroke-linejoin="round"/>
<path d="M175.228 148.484C180.985 148.484 185.937 149.327 190.082 151.013C194.228 152.7 197.663 154.962 200.389 157.797C203.115 160.636 205.197 164.028 206.492 167.742C207.843 171.576 208.638 175.583 208.852 179.641C209.005 182.938 209.082 186.387 209.083 189.989C209.083 193.593 209.006 196.965 208.852 200.107C208.638 204.165 207.843 208.172 206.492 212.006C205.197 215.72 203.115 219.112 200.389 221.951C197.663 224.788 194.227 227.049 190.082 228.734C185.937 230.42 180.985 231.263 175.228 231.264C169.47 231.264 164.518 230.421 160.373 228.734C156.227 227.05 152.792 224.788 150.067 221.951C147.339 219.113 145.257 215.721 143.963 212.006C142.612 208.172 141.817 204.165 141.603 200.107C141.448 196.964 141.371 193.592 141.373 189.989C141.373 186.387 141.449 182.938 141.603 179.641C141.817 175.583 142.612 171.576 143.963 167.742C145.258 164.027 147.339 160.635 150.067 157.797C152.791 154.962 156.226 152.701 160.373 151.013C164.518 149.328 169.47 148.485 175.228 148.484ZM187.549 199.531C187.855 193.018 187.855 186.579 187.549 180.216C187.416 178.432 187.127 176.662 186.685 174.928C186.306 173.407 185.62 171.979 184.67 170.731C183.695 169.502 182.428 168.534 180.985 167.915C179.449 167.224 177.529 166.879 175.228 166.879C172.924 166.879 171.005 167.225 169.47 167.915C168.026 168.534 166.76 169.502 165.785 170.731C164.831 171.985 164.128 173.409 163.712 174.928C163.234 176.652 162.963 178.428 162.906 180.216C162.521 186.649 162.521 193.099 162.906 199.531C162.963 201.316 163.214 203.089 163.655 204.82C164.036 206.351 164.743 207.782 165.727 209.017C166.732 210.24 168.015 211.206 169.47 211.834C171.005 212.524 172.924 212.868 175.228 212.868C177.531 212.868 179.45 212.523 180.985 211.834C182.439 211.205 183.722 210.239 184.728 209.017C185.71 207.781 186.417 206.351 186.801 204.82C187.24 203.089 187.491 201.316 187.549 199.531V199.531Z" stroke="#7BB1F1" stroke-width="1.19242" stroke-linecap="round" stroke-linejoin="round"/>
<path d="M265.462 175.82C264.64 175.811 263.855 175.481 263.274 174.901C262.693 174.321 262.362 173.536 262.353 172.716V160.989H226.079C225.257 160.98 224.472 160.65 223.891 160.069C223.31 159.489 222.98 158.705 222.97 157.885V145.698C222.97 143.706 223.469 142.058 224.467 140.754L258.898 97.4098C259.589 96.5673 260.222 96.0115 260.798 95.7426C261.374 95.4751 262.16 95.341 263.159 95.3402H280.547C281.368 95.3498 282.154 95.68 282.735 96.2601C283.316 96.8402 283.646 97.6241 283.656 98.4444V142.593H293.559C294.381 142.603 295.166 142.933 295.747 143.513C296.328 144.094 296.659 144.877 296.668 145.698V157.885C296.659 158.705 296.328 159.489 295.747 160.069C295.166 160.649 294.381 160.979 293.559 160.989H283.656V172.716C283.646 173.536 283.316 174.32 282.735 174.901C282.154 175.481 281.368 175.811 280.547 175.82H265.462ZM262.928 142.593V121.439L246.116 142.593H262.928Z" stroke="#7BB1F1" stroke-width="1.19242" stroke-linecap="round" stroke-linejoin="round"/>
<path d="M55.4438 257.344H298.052" stroke="#7BB1F1" stroke-width="1.19242" stroke-linecap="round" stroke-linejoin="round"/>
<path d="M74.775 128.694C74.7749 130.394 74.0984 132.025 72.8944 133.227C71.6903 134.429 70.0572 135.105 68.3543 135.105H37.9371C36.2341 135.105 34.6008 134.429 33.3966 133.227C32.1924 132.025 31.5158 130.394 31.5156 128.694C31.5157 126.993 32.1923 125.363 33.3966 124.16C34.6008 122.958 36.234 122.283 37.9371 122.282H68.3543C70.0573 122.283 71.6903 122.958 72.8944 124.161C74.0985 125.363 74.7749 126.994 74.775 128.694Z" fill="white" stroke="#7BB1F1" stroke-width="1.19242" stroke-linecap="round" stroke-linejoin="round"/>
<path d="M66.4047 129.998H38.8742C37.5609 129.998 36.2865 129.553 35.2588 128.736C34.2311 127.92 33.5108 126.78 33.2152 125.502C32.7383 126.386 32.4992 127.379 32.5214 128.383C32.5437 129.387 32.8264 130.368 33.342 131.23C33.8575 132.092 34.5884 132.806 35.463 133.302C36.3376 133.798 37.3261 134.058 38.3318 134.059H65.8624C66.7375 134.061 67.6017 133.865 68.3902 133.487C69.1788 133.108 69.8712 132.556 70.4156 131.872C70.96 131.188 71.3422 130.39 71.5336 129.537C71.725 128.685 71.7205 127.8 71.5206 126.95C71.0229 127.872 70.2846 128.642 69.3839 129.179C68.4831 129.715 67.4537 129.999 66.4047 129.998Z" fill="#E3EDFD"/>
<path d="M88.2944 131.055C88.2947 132.628 87.9845 134.186 87.3817 135.64C86.7788 137.093 85.8951 138.414 84.7809 139.526C83.6668 140.639 82.344 141.521 80.8882 142.123C79.4325 142.725 77.8722 143.035 76.2965 143.035C74.7208 143.035 73.1605 142.725 71.7047 142.123C70.249 141.521 68.9263 140.639 67.8121 139.526C66.698 138.414 65.8143 137.093 65.2115 135.64C64.6086 134.186 64.2985 132.628 64.2988 131.055V126.332C64.2986 124.758 64.6088 123.201 65.2117 121.747C65.8145 120.294 66.6982 118.973 67.8123 117.861C68.9265 116.748 70.2492 115.866 71.7049 115.264C73.1606 114.662 74.7208 114.352 76.2965 114.352C77.8721 114.352 79.4324 114.662 80.8881 115.264C82.3439 115.866 83.6666 116.748 84.7807 117.861C85.8949 118.973 86.7786 120.294 87.3815 121.747C87.9844 123.201 88.2946 124.758 88.2944 126.332V131.055Z" fill="white" stroke="#7BB1F1" stroke-width="1.19242" stroke-linecap="round" stroke-linejoin="round"/>
<path d="M79.8904 136.605C78.4955 136.605 77.1142 136.331 75.8254 135.798C74.5366 135.265 73.3656 134.484 72.3792 133.499C71.3929 132.515 70.6105 131.345 70.0768 130.059C69.5431 128.772 69.2685 127.393 69.2687 126V121.818C69.2677 120.443 69.535 119.082 70.0559 117.809C68.6137 118.78 67.4325 120.089 66.6162 121.623C65.8 123.156 65.3737 124.866 65.375 126.603V130.785C65.375 133.243 66.2303 135.625 67.7947 137.523C69.3591 139.421 71.5354 140.718 73.9514 141.191C76.3675 141.665 78.8733 141.286 81.0402 140.119C83.2072 138.951 84.9008 137.069 85.8313 134.793C84.0775 135.977 82.0078 136.609 79.8904 136.605Z" fill="#E3EDFD"/>
<path d="M127.499 137.804C127.499 139.577 127.149 141.332 126.47 142.97C125.791 144.608 124.795 146.096 123.539 147.349C122.284 148.602 120.794 149.596 119.153 150.275C117.513 150.953 115.755 151.302 113.98 151.302H89.9839C88.2086 151.302 86.4506 150.953 84.8104 150.274C83.1702 149.596 81.6799 148.602 80.4246 147.349C79.1693 146.095 78.1735 144.607 77.4942 142.97C76.8148 141.332 76.4652 139.577 76.4653 137.804V119.583C76.4653 117.81 76.8149 116.055 77.4943 114.417C78.1736 112.78 79.1694 111.292 80.4247 110.039C81.68 108.785 83.1703 107.791 84.8105 107.113C86.4507 106.435 88.2086 106.086 89.9839 106.086H113.98C115.755 106.085 117.513 106.434 119.153 107.113C120.793 107.791 122.284 108.785 123.539 110.038C124.795 111.292 125.79 112.78 126.47 114.417C127.149 116.055 127.499 117.81 127.499 119.583V137.804Z" fill="white" stroke="#7BB1F1" stroke-width="1.19242" stroke-linecap="round" stroke-linejoin="round"/>
<path d="M118.525 143.327H96.2219C94.5718 143.327 92.9378 143.003 91.4133 142.372C89.8888 141.742 88.5036 140.818 87.3368 139.653C86.17 138.488 85.2445 137.105 84.613 135.583C83.9816 134.061 83.6567 132.429 83.6567 130.782V113.845C83.6559 112.271 83.953 110.71 84.5324 109.245C82.4662 110.294 80.7312 111.894 79.5194 113.867C78.3075 115.84 77.6663 118.11 77.6665 120.424V137.361C77.6664 139.008 77.9913 140.64 78.6227 142.162C79.2541 143.684 80.1797 145.067 81.3464 146.232C82.5132 147.397 83.8984 148.321 85.4229 148.951C86.9474 149.582 88.5813 149.906 90.2314 149.906H112.535C115.056 149.906 117.52 149.148 119.605 147.731C121.69 146.314 123.299 144.304 124.224 141.961C122.46 142.861 120.506 143.329 118.525 143.327Z" fill="#E3EDFD"/>
<path d="M129.589 97.1432C127.665 97.1285 125.755 97.4657 123.954 98.138C123.929 98.1375 123.904 98.1349 123.879 98.1349C122.779 98.1349 121.725 98.8176 120.75 100.065C119.879 100.88 119.304 101.822 119.118 102.837C116.581 108.308 114.895 118.017 114.895 129.084C114.895 146.177 118.917 160.033 123.879 160.033C124.359 160.028 124.83 159.905 125.251 159.675C126.665 160.057 128.124 160.249 129.589 160.244C135.41 160.244 140.13 157.373 140.13 153.833V103.555C140.13 100.014 135.41 97.1432 129.589 97.1432Z" fill="white" stroke="#7BB1F1" stroke-width="1.19242" stroke-linecap="round" stroke-linejoin="round"/>
<path d="M108.686 137.026C108.686 137.235 108.602 137.435 108.454 137.583C108.306 137.731 108.106 137.814 107.896 137.814C107.687 137.813 107.487 137.73 107.34 137.582C107.192 137.434 107.11 137.234 107.11 137.026V117.454C107.11 117.246 107.193 117.047 107.341 116.9C107.488 116.752 107.688 116.67 107.896 116.669C108.105 116.669 108.306 116.752 108.454 116.899C108.602 117.046 108.685 117.246 108.686 117.454V137.026Z" fill="#E3EDFD"/>
<path d="M102.995 137.026C102.995 137.235 102.912 137.435 102.764 137.583C102.616 137.731 102.415 137.814 102.206 137.814C101.997 137.813 101.797 137.73 101.649 137.582C101.502 137.434 101.419 137.234 101.419 137.026V117.454C101.419 117.246 101.502 117.047 101.65 116.9C101.797 116.752 101.997 116.67 102.206 116.669C102.414 116.669 102.615 116.752 102.763 116.899C102.911 117.046 102.994 117.246 102.995 117.454V137.026Z" fill="#E3EDFD"/>
<path d="M144.845 129.084C144.845 146.177 140.822 160.033 135.86 160.033C130.897 160.033 126.875 146.177 126.875 129.084C126.875 111.991 130.898 98.1349 135.86 98.1349C140.822 98.1349 144.845 111.991 144.845 129.084Z" fill="#E3EDFD" stroke="#7BB1F1" stroke-width="1.19242" stroke-miterlimit="10"/>
<path d="M133.767 133.989C133.767 134.306 133.64 134.61 133.416 134.835C133.191 135.059 132.886 135.185 132.569 135.185C132.411 135.185 132.256 135.154 132.11 135.094C131.965 135.034 131.833 134.946 131.721 134.835C131.61 134.723 131.522 134.592 131.462 134.446C131.402 134.301 131.371 134.146 131.371 133.989V123.522C131.371 123.365 131.402 123.21 131.462 123.065C131.522 122.919 131.61 122.788 131.721 122.677C131.833 122.565 131.965 122.477 132.11 122.417C132.256 122.357 132.411 122.326 132.569 122.326C132.886 122.326 133.191 122.452 133.416 122.677C133.64 122.901 133.767 123.205 133.767 123.522V133.989Z" fill="#E3EDFD"/>
<path d="M140.506 129.952C140.505 130.269 140.379 130.573 140.155 130.798C139.93 131.022 139.625 131.148 139.307 131.148C138.99 131.148 138.685 131.022 138.46 130.797C138.236 130.573 138.109 130.269 138.109 129.952V119.485C138.109 119.168 138.236 118.864 138.46 118.639C138.685 118.415 138.99 118.289 139.307 118.289C139.625 118.289 139.93 118.415 140.155 118.639C140.379 118.864 140.505 119.168 140.506 119.485V129.952Z" fill="#E3EDFD"/>
<path d="M298.205 221.127C298.171 220.676 298.137 220.252 298.107 219.85C298.075 219.448 298.072 219.071 298.053 218.723C298.036 218.375 298.018 218.054 298.021 217.764C298.014 217.383 298.01 217.064 298.01 216.795C298.674 216.144 303.436 211.098 299.521 203.927C299.521 203.927 292.289 209.154 297.879 216.792C297.839 217.056 297.793 217.375 297.75 217.75C297.677 218.33 297.622 219.037 297.569 219.851C297.551 220.257 297.533 220.69 297.515 221.146C297.488 221.604 297.558 222.082 297.578 222.582C297.606 222.972 297.628 223.379 297.658 223.794C297.39 223.442 297.037 222.98 296.681 222.514C296.503 222.28 296.323 222.045 296.155 221.827C296.09 221.748 296.027 221.671 295.966 221.596C297.048 211.661 289.844 210.259 289.844 210.259C290.021 220.734 294.269 221.643 295.58 221.672C295.676 221.791 295.778 221.914 295.886 222.047C296.053 222.264 296.233 222.497 296.408 222.729C296.764 223.194 297.118 223.658 297.384 224.008C297.423 224.048 297.439 224.101 297.482 224.13C297.523 224.163 297.563 224.192 297.599 224.221C297.639 224.25 297.666 224.271 297.698 224.296C297.751 224.784 297.807 225.285 297.861 225.801C297.894 226.086 297.918 226.375 297.959 226.667C298.004 226.957 298.051 227.251 298.097 227.548C298.192 228.143 298.288 228.751 298.386 229.368C298.507 229.99 298.622 230.6 298.763 231.232C298.83 231.531 298.901 231.833 298.97 232.134C298.931 232.054 298.886 231.976 298.838 231.901C298.753 231.76 298.667 231.618 298.58 231.474C298.408 231.188 298.235 230.9 298.073 230.631C297.896 230.37 297.731 230.128 297.59 229.918C297.559 229.868 297.525 229.819 297.488 229.772C297.445 229.731 297.403 229.696 297.365 229.658C297.329 229.626 297.299 229.605 297.266 229.577C297.054 228.033 295.75 221.939 288.229 220.56C288.229 220.56 287.747 229.449 297.191 229.927C297.197 229.943 297.203 229.957 297.208 229.974C297.238 230.025 297.271 230.074 297.307 230.12C297.447 230.325 297.607 230.564 297.782 230.819C297.94 231.084 298.112 231.366 298.282 231.651C298.366 231.792 298.452 231.933 298.537 232.073C298.62 232.208 298.695 232.347 298.762 232.49C298.9 232.769 299.027 233.027 299.138 233.248C299.159 233.303 299.187 233.356 299.22 233.405C299.241 233.433 299.262 233.457 299.284 233.483C299.558 234.64 299.837 235.805 300.043 236.979C300.172 237.624 300.248 238.275 300.336 238.92C300.378 239.244 300.393 239.57 300.423 239.891C300.447 240.215 300.482 240.537 300.481 240.859C300.482 240.932 300.483 241.002 300.484 241.077C300.462 241.033 300.441 240.988 300.416 240.944C300.312 240.741 300.197 240.543 300.072 240.352C299.954 240.144 299.798 239.953 299.657 239.746C299.501 239.552 299.342 239.352 299.168 239.166C298.999 239.004 298.84 238.828 298.657 238.681C298.702 238.666 298.744 238.657 298.789 238.643C298.789 238.643 296.332 231.303 288.372 232.672C288.372 232.672 290.243 241.067 298.257 238.799C298.302 238.836 298.345 238.87 298.388 238.906C298.573 239.061 298.748 239.227 298.913 239.403C299.079 239.579 299.23 239.771 299.381 239.956C299.516 240.154 299.665 240.337 299.778 240.537C299.903 240.729 300.013 240.92 300.109 241.106C300.212 241.29 300.292 241.471 300.371 241.636C300.414 241.718 300.431 241.806 300.477 241.877C300.484 241.888 300.489 241.898 300.495 241.909C300.497 242.199 300.496 242.486 300.475 242.773C300.461 243.088 300.45 243.401 300.436 243.712C300.41 244.023 300.372 244.332 300.341 244.637C300.311 244.943 300.278 245.245 300.247 245.545C300.2 245.845 300.152 246.141 300.104 246.432C300.006 247.018 299.926 247.591 299.792 248.141C299.668 248.692 299.551 249.229 299.437 249.75C299.403 249.871 299.371 249.991 299.337 250.111C299.309 249.994 299.278 249.877 299.239 249.761C299.088 249.291 298.871 248.846 298.594 248.437C298.564 248.4 298.551 248.349 298.513 248.321C298.475 248.289 298.439 248.263 298.405 248.237C298.359 248.204 298.321 248.18 298.282 248.155C298.211 247.34 297.463 241.376 290.856 240.697C290.856 240.697 290.433 248.514 298.138 248.251C298.155 248.297 298.171 248.342 298.19 248.398C298.204 248.436 298.217 248.478 298.232 248.52C298.247 248.561 298.286 248.59 298.307 248.632C298.566 249.013 298.768 249.428 298.909 249.867C298.986 250.098 299.041 250.337 299.074 250.579C299.092 250.689 299.103 250.801 299.108 250.912C299.109 250.929 299.109 250.943 299.108 250.959C299.083 251.052 299.059 251.146 299.034 251.238C298.968 251.475 298.904 251.709 298.84 251.938C298.773 252.163 298.697 252.382 298.646 252.602C298.537 253.041 298.433 253.456 298.336 253.847C298.151 254.634 297.948 255.307 297.786 255.864C297.465 256.981 297.293 257.625 297.293 257.625C297.293 257.625 297.566 257.021 298.03 255.952C298.261 255.416 298.548 254.769 298.831 254.006C298.933 253.746 299.039 253.47 299.151 253.186C299.175 253.173 299.196 253.164 299.224 253.15C299.263 253.131 299.305 253.11 299.349 253.088C299.394 253.069 299.419 253.021 299.462 252.99C299.54 252.913 299.625 252.842 299.715 252.779C299.811 252.713 299.916 252.643 300.022 252.571C300.13 252.499 300.235 252.419 300.352 252.349C300.472 252.291 300.595 252.227 300.717 252.164C300.835 252.097 300.959 252.04 301.087 251.993C301.213 251.944 301.339 251.898 301.455 251.854C301.571 251.811 301.69 251.776 301.811 251.749C301.926 251.722 302.031 251.684 302.131 251.67C302.181 251.666 302.23 251.657 302.278 251.645C302.3 251.633 302.319 251.624 302.342 251.613C303.703 251.974 310.003 253.222 314.184 246.661C314.184 246.661 306.198 242.917 302.183 251.308C302.146 251.314 302.107 251.326 302.065 251.33C301.957 251.346 301.846 251.384 301.724 251.413C301.596 251.442 301.47 251.479 301.347 251.524C301.22 251.571 301.088 251.621 300.954 251.673C300.819 251.724 300.689 251.784 300.563 251.853C300.433 251.919 300.305 251.985 300.178 252.051C300.054 252.123 299.942 252.207 299.829 252.281C299.717 252.358 299.608 252.432 299.505 252.503C299.456 252.533 299.41 252.569 299.369 252.609C299.498 252.236 299.585 251.832 299.703 251.423C299.834 250.939 299.97 250.437 300.113 249.916C300.227 249.387 300.348 248.842 300.472 248.282C300.608 247.723 300.691 247.137 300.79 246.541C300.837 246.244 300.886 245.942 300.935 245.638C300.953 245.481 300.969 245.32 300.986 245.161C301.004 245.154 301.02 245.147 301.04 245.141C301.073 245.126 301.085 245.089 301.115 245.068C301.318 244.865 301.589 244.595 301.857 244.326C302.128 244.056 302.397 243.785 302.6 243.581C302.616 243.562 302.636 243.549 302.652 243.533C304.384 243.282 310.225 241.901 311.622 234.595C311.622 234.595 302.691 234.047 302.171 243.521C302.001 243.691 301.807 243.887 301.613 244.08C301.411 244.28 301.211 244.48 301.037 244.653C301.068 244.359 301.104 244.063 301.128 243.762C301.142 243.442 301.155 243.12 301.169 242.798C301.215 242.151 301.185 241.495 301.175 240.832C301.175 240.502 301.138 240.172 301.115 239.839C301.084 239.508 301.07 239.173 301.027 238.84C300.959 238.347 300.892 237.852 300.811 237.359C300.82 237.305 300.826 237.25 300.83 237.196C300.867 236.886 300.881 236.524 300.949 236.135C301.012 235.748 301.069 235.334 301.152 234.921C301.301 234.098 301.487 233.278 301.628 232.664C301.649 232.591 301.666 232.518 301.678 232.444C301.681 232.404 301.683 232.366 301.685 232.327C302.551 231.897 308.888 228.452 306.102 220.702C306.102 220.702 297.324 226.102 301.437 232.152C301.434 232.16 301.431 232.167 301.428 232.174C301.4 232.234 301.372 232.297 301.342 232.364C301.314 232.432 301.313 232.51 301.29 232.586C301.146 233.203 300.961 234.026 300.81 234.859C300.726 235.273 300.668 235.694 300.606 236.087C300.602 236.115 300.6 236.143 300.596 236.171C300.382 235.087 300.124 234.022 299.877 232.971C299.723 232.338 299.583 231.709 299.443 231.092C299.305 230.475 299.186 229.84 299.068 229.243C298.972 228.635 298.877 228.033 298.785 227.446C298.738 227.153 298.693 226.862 298.646 226.575C298.607 226.288 298.583 226.002 298.55 225.721C298.496 225.216 298.445 224.727 298.393 224.248C298.411 224.11 298.438 223.973 298.473 223.838C298.512 223.661 298.559 223.487 298.616 223.316C298.669 223.142 298.73 222.972 298.801 222.805C298.862 222.638 298.946 222.482 299.016 222.326C299.156 222.048 299.314 221.779 299.487 221.521C299.521 221.462 299.57 221.418 299.597 221.36C299.623 221.302 299.65 221.246 299.672 221.195C299.672 221.191 299.675 221.189 299.676 221.185C301.055 220.757 305.478 218.936 304.303 213.458C304.303 213.458 297.964 214.945 299.264 221.227C299.245 221.262 299.224 221.295 299.199 221.326C299.017 221.597 298.852 221.879 298.705 222.17C298.631 222.335 298.545 222.497 298.48 222.673C298.416 222.827 298.36 222.985 298.309 223.146C298.297 222.942 298.286 222.74 298.273 222.543C298.234 222.049 298.232 221.577 298.205 221.127Z" fill="#E3EDFD"/>
<path d="M49.0931 188.622C49.0931 188.835 49.0296 189.044 48.9107 189.222C48.7918 189.4 48.6227 189.538 48.4249 189.62C48.2271 189.702 48.0095 189.723 47.7995 189.682C47.5895 189.64 47.3967 189.537 47.2453 189.386C47.0939 189.235 46.9908 189.042 46.949 188.832C46.9073 188.623 46.9287 188.405 47.0106 188.208C47.0926 188.011 47.2313 187.842 47.4093 187.723C47.5874 187.604 47.7966 187.541 48.0107 187.541C48.2978 187.541 48.5731 187.655 48.776 187.857C48.979 188.06 49.0931 188.335 49.0931 188.622Z" fill="#E3EDFD"/>
<path d="M55.2513 188.622C55.2513 188.835 55.1878 189.044 55.0689 189.222C54.95 189.4 54.7809 189.538 54.5831 189.62C54.3853 189.702 54.1677 189.723 53.9577 189.682C53.7477 189.64 53.5549 189.537 53.4035 189.386C53.2521 189.235 53.149 189.042 53.1072 188.832C53.0655 188.623 53.0869 188.405 53.1688 188.208C53.2508 188.011 53.3895 187.842 53.5675 187.723C53.7456 187.604 53.9548 187.541 54.1689 187.541C54.456 187.541 54.7313 187.655 54.9343 187.857C55.1372 188.06 55.2513 188.335 55.2513 188.622Z" fill="#E3EDFD"/>
<path d="M61.4095 188.622C61.4095 188.835 61.346 189.044 61.2271 189.222C61.1081 189.4 60.939 189.538 60.7412 189.62C60.5434 189.702 60.3257 189.723 60.1157 189.682C59.9057 189.64 59.7128 189.537 59.5615 189.386C59.4101 189.234 59.3071 189.042 59.2654 188.832C59.2237 188.622 59.2452 188.405 59.3272 188.208C59.4092 188.01 59.548 187.841 59.7261 187.723C59.9042 187.604 60.1136 187.541 60.3277 187.541C60.4698 187.541 60.6105 187.569 60.7418 187.623C60.873 187.678 60.9923 187.757 61.0928 187.858C61.1932 187.958 61.2729 188.077 61.3272 188.208C61.3816 188.339 61.4095 188.48 61.4095 188.622Z" fill="#E3EDFD"/>
<path d="M67.5676 188.622C67.5676 188.835 67.5042 189.044 67.3852 189.222C67.2663 189.4 67.0972 189.538 66.8995 189.62C66.7017 189.702 66.484 189.723 66.2741 189.681C66.0641 189.64 65.8712 189.537 65.7199 189.386C65.5685 189.235 65.4654 189.042 65.4236 188.832C65.3819 188.623 65.4033 188.405 65.4852 188.208C65.5672 188.011 65.7059 187.842 65.8839 187.723C66.0619 187.604 66.2712 187.541 66.4853 187.541C66.6274 187.541 66.7682 187.569 66.8995 187.623C67.0308 187.677 67.1502 187.757 67.2507 187.857C67.3512 187.958 67.4309 188.077 67.4853 188.208C67.5397 188.339 67.5677 188.48 67.5676 188.622Z" fill="#E3EDFD"/>
<path d="M73.7263 188.622C73.7263 188.835 73.6628 189.044 73.5439 189.222C73.425 189.4 73.2559 189.538 73.0581 189.62C72.8603 189.702 72.6427 189.723 72.4327 189.681C72.2228 189.64 72.0299 189.537 71.8785 189.386C71.7272 189.235 71.6241 189.042 71.5823 188.832C71.5406 188.623 71.562 188.405 71.6439 188.208C71.7259 188.01 71.8646 187.842 72.0426 187.723C72.2207 187.604 72.4299 187.541 72.644 187.541C72.9311 187.541 73.2063 187.655 73.4093 187.857C73.6123 188.06 73.7263 188.335 73.7263 188.622Z" fill="#E3EDFD"/>
<path d="M79.8841 188.622C79.8841 188.835 79.8206 189.044 79.7017 189.222C79.5827 189.4 79.4136 189.538 79.2158 189.62C79.018 189.702 78.8003 189.723 78.5903 189.682C78.3803 189.64 78.1874 189.537 78.0361 189.386C77.8847 189.234 77.7817 189.042 77.74 188.832C77.6983 188.622 77.7198 188.405 77.8018 188.208C77.8838 188.01 78.0227 187.841 78.2007 187.723C78.3788 187.604 78.5882 187.541 78.8023 187.541C79.0893 187.541 79.3644 187.655 79.5673 187.858C79.7701 188.06 79.8841 188.335 79.8841 188.622Z" fill="#E3EDFD"/>
<path d="M49.0931 195.346C49.0932 195.56 49.0298 195.769 48.9109 195.947C48.792 196.125 48.623 196.263 48.4252 196.345C48.2275 196.427 48.0098 196.448 47.7998 196.407C47.5898 196.365 47.3968 196.262 47.2454 196.111C47.094 195.96 46.9909 195.767 46.9491 195.558C46.9073 195.348 46.9287 195.131 47.0106 194.933C47.0925 194.736 47.2313 194.567 47.4093 194.448C47.5873 194.329 47.7966 194.266 48.0107 194.266C48.2976 194.266 48.5728 194.38 48.7757 194.583C48.9786 194.785 49.0928 195.06 49.0931 195.346Z" fill="#E3EDFD"/>
<path d="M55.2513 195.346C55.2514 195.56 55.188 195.769 55.0691 195.947C54.9502 196.125 54.7812 196.263 54.5834 196.345C54.3857 196.427 54.168 196.448 53.958 196.407C53.748 196.365 53.5551 196.262 53.4036 196.111C53.2522 195.96 53.1491 195.767 53.1073 195.558C53.0655 195.348 53.0869 195.131 53.1688 194.933C53.2507 194.736 53.3895 194.567 53.5675 194.448C53.7455 194.329 53.9548 194.266 54.1689 194.266C54.4559 194.266 54.731 194.38 54.9339 194.583C55.1368 194.785 55.251 195.06 55.2513 195.346Z" fill="#E3EDFD"/>
<path d="M61.4095 195.346C61.4096 195.56 61.3462 195.769 61.2273 195.947C61.1084 196.125 60.9393 196.263 60.7415 196.345C60.5437 196.427 60.326 196.448 60.116 196.407C59.906 196.365 59.7131 196.262 59.5616 196.111C59.4102 195.96 59.3071 195.767 59.2654 195.557C59.2237 195.348 59.2451 195.13 59.3272 194.933C59.4092 194.735 59.548 194.567 59.7261 194.448C59.9042 194.329 60.1136 194.266 60.3277 194.266C60.6145 194.266 60.8896 194.38 61.0924 194.583C61.2953 194.785 61.4093 195.06 61.4095 195.346Z" fill="#E3EDFD"/>
<path d="M67.5676 195.346C67.5677 195.56 67.5043 195.769 67.3855 195.947C67.2666 196.125 67.0976 196.263 66.8998 196.345C66.702 196.427 66.4844 196.448 66.2744 196.407C66.0644 196.365 65.8715 196.262 65.72 196.111C65.5686 195.96 65.4655 195.767 65.4237 195.558C65.3819 195.348 65.4033 195.131 65.4852 194.933C65.5671 194.736 65.7058 194.567 65.8839 194.448C66.0619 194.329 66.2712 194.266 66.4853 194.266C66.7722 194.266 67.0474 194.38 67.2503 194.582C67.4533 194.785 67.5674 195.06 67.5676 195.346Z" fill="#E3EDFD"/>
<path d="M73.7263 195.346C73.7264 195.56 73.663 195.769 73.5441 195.947C73.4253 196.125 73.2562 196.263 73.0585 196.345C72.8607 196.427 72.643 196.448 72.433 196.407C72.223 196.365 72.0301 196.262 71.8787 196.111C71.7273 195.96 71.6241 195.767 71.5823 195.558C71.5406 195.348 71.562 195.131 71.6439 194.933C71.7258 194.736 71.8646 194.567 72.0426 194.448C72.2206 194.329 72.4299 194.266 72.644 194.266C72.9309 194.266 73.206 194.38 73.4089 194.583C73.6119 194.785 73.726 195.06 73.7263 195.346Z" fill="#E3EDFD"/>
<path d="M79.8841 195.346C79.8842 195.56 79.8208 195.769 79.7019 195.947C79.583 196.125 79.4139 196.263 79.2161 196.345C79.0183 196.427 78.8006 196.448 78.5906 196.407C78.3806 196.365 78.1876 196.262 78.0362 196.111C77.8848 195.96 77.7817 195.767 77.74 195.557C77.6983 195.348 77.7198 195.13 77.8018 194.933C77.8838 194.735 78.0226 194.567 78.2007 194.448C78.3788 194.329 78.5882 194.266 78.8023 194.266C79.0891 194.266 79.3641 194.38 79.5669 194.583C79.7697 194.785 79.8838 195.06 79.8841 195.346Z" fill="#E3EDFD"/>
<path d="M49.0931 202.072C49.093 202.285 49.0295 202.494 48.9105 202.672C48.7915 202.85 48.6224 202.988 48.4246 203.07C48.2268 203.152 48.0092 203.173 47.7992 203.131C47.5893 203.089 47.3964 202.987 47.2451 202.835C47.0938 202.684 46.9907 202.492 46.949 202.282C46.9073 202.072 46.9287 201.855 47.0107 201.658C47.0926 201.46 47.2314 201.291 47.4094 201.173C47.5874 201.054 47.7967 200.991 48.0107 200.991C48.1529 200.991 48.2937 201.019 48.425 201.073C48.5564 201.127 48.6757 201.207 48.7762 201.307C48.8767 201.408 48.9565 201.527 49.0108 201.658C49.0652 201.789 49.0931 201.93 49.0931 202.072Z" fill="#E3EDFD"/>
<path d="M55.2513 202.072C55.2512 202.285 55.1877 202.494 55.0687 202.672C54.9497 202.85 54.7806 202.988 54.5828 203.07C54.385 203.152 54.1674 203.173 53.9574 203.131C53.7475 203.089 53.5546 202.987 53.4033 202.835C53.252 202.684 53.1489 202.492 53.1072 202.282C53.0655 202.072 53.0869 201.855 53.1689 201.658C53.2508 201.46 53.3896 201.291 53.5676 201.173C53.7456 201.054 53.9549 200.991 54.1689 200.991C54.3111 200.991 54.4519 201.019 54.5832 201.073C54.7146 201.127 54.8339 201.207 54.9345 201.307C55.035 201.408 55.1147 201.527 55.1691 201.658C55.2234 201.789 55.2514 201.93 55.2513 202.072Z" fill="#E3EDFD"/>
<path d="M61.4095 202.072C61.4094 202.285 61.3459 202.494 61.2268 202.672C61.1078 202.85 60.9387 202.988 60.7409 203.07C60.5431 203.152 60.3254 203.173 60.1154 203.131C59.9055 203.089 59.7126 202.986 59.5613 202.835C59.41 202.684 59.307 202.491 59.2653 202.282C59.2237 202.072 59.2452 201.855 59.3272 201.657C59.4093 201.46 59.5481 201.291 59.7262 201.172C59.9043 201.054 60.1136 200.99 60.3277 200.991C60.4698 200.991 60.6106 201.019 60.7419 201.073C60.8732 201.127 60.9925 201.207 61.093 201.307C61.1934 201.408 61.2731 201.527 61.3274 201.658C61.3817 201.789 61.4096 201.93 61.4095 202.072Z" fill="#E3EDFD"/>
<path d="M67.5676 202.072C67.5675 202.285 67.504 202.494 67.385 202.672C67.266 202.85 67.0969 202.988 66.8991 203.07C66.7014 203.152 66.4837 203.173 66.2738 203.131C66.0639 203.089 65.871 202.986 65.7197 202.835C65.5684 202.684 65.4653 202.492 65.4236 202.282C65.3819 202.072 65.4033 201.855 65.4853 201.658C65.5672 201.46 65.706 201.291 65.884 201.173C66.062 201.054 66.2712 200.991 66.4853 200.991C66.6275 200.991 66.7683 201.018 66.8996 201.073C67.031 201.127 67.1504 201.207 67.2509 201.307C67.3514 201.408 67.4311 201.527 67.4855 201.658C67.5398 201.789 67.5677 201.93 67.5676 202.072Z" fill="#E3EDFD"/>
<path d="M73.7263 202.072C73.7262 202.285 73.6627 202.494 73.5437 202.672C73.4247 202.85 73.2556 202.988 73.0578 203.07C72.86 203.152 72.6424 203.173 72.4325 203.131C72.2225 203.089 72.0297 202.986 71.8784 202.835C71.727 202.684 71.624 202.492 71.5823 202.282C71.5406 202.072 71.562 201.855 71.644 201.658C71.7259 201.46 71.8647 201.291 72.0427 201.173C72.2207 201.054 72.43 200.991 72.644 200.991C72.7862 200.991 72.927 201.019 73.0583 201.073C73.1897 201.127 73.309 201.207 73.4095 201.307C73.51 201.408 73.5897 201.527 73.6441 201.658C73.6984 201.789 73.7264 201.93 73.7263 202.072Z" fill="#E3EDFD"/>
<path d="M79.8841 202.072C79.884 202.285 79.8205 202.494 79.7014 202.672C79.5824 202.85 79.4133 202.988 79.2155 203.07C79.0176 203.152 78.8 203.173 78.59 203.131C78.3801 203.089 78.1872 202.986 78.0359 202.835C77.8846 202.684 77.7816 202.491 77.7399 202.282C77.6983 202.072 77.7198 201.855 77.8019 201.657C77.8839 201.46 78.0227 201.291 78.2008 201.172C78.3789 201.054 78.5882 200.99 78.8023 200.991C78.9444 200.991 79.0852 201.019 79.2164 201.073C79.3477 201.127 79.467 201.207 79.5675 201.307C79.6679 201.408 79.7476 201.527 79.8019 201.658C79.8562 201.789 79.8842 201.93 79.8841 202.072Z" fill="#E3EDFD"/>
<path d="M49.0931 208.797C49.0931 209.01 49.0297 209.219 48.9108 209.397C48.7919 209.575 48.6228 209.713 48.425 209.795C48.2272 209.877 48.0096 209.898 47.7996 209.857C47.5896 209.815 47.3967 209.712 47.2453 209.561C47.0939 209.41 46.9908 209.217 46.949 209.008C46.9073 208.798 46.9287 208.581 47.0106 208.383C47.0926 208.186 47.2313 208.017 47.4093 207.898C47.5873 207.779 47.7966 207.716 48.0107 207.716C48.1529 207.716 48.2936 207.744 48.4249 207.798C48.5563 207.853 48.6756 207.932 48.7761 208.032C48.8766 208.133 48.9563 208.252 49.0107 208.383C49.0651 208.514 49.0931 208.655 49.0931 208.797Z" fill="#E3EDFD"/>
<path d="M55.2513 208.797C55.2513 209.01 55.1879 209.219 55.069 209.397C54.9501 209.575 54.781 209.713 54.5832 209.795C54.3854 209.877 54.1678 209.898 53.9578 209.857C53.7478 209.815 53.5549 209.712 53.4035 209.561C53.2521 209.41 53.149 209.217 53.1072 209.008C53.0655 208.798 53.0869 208.581 53.1688 208.383C53.2508 208.186 53.3895 208.017 53.5675 207.898C53.7455 207.779 53.9548 207.716 54.1689 207.716C54.3111 207.716 54.4518 207.744 54.5832 207.798C54.7145 207.853 54.8338 207.932 54.9343 208.032C55.0348 208.133 55.1146 208.252 55.1689 208.383C55.2233 208.514 55.2513 208.655 55.2513 208.797Z" fill="#E3EDFD"/>
<path d="M61.4095 208.797C61.4095 209.01 61.3461 209.219 61.2271 209.397C61.1082 209.575 60.9391 209.713 60.7413 209.795C60.5435 209.877 60.3258 209.898 60.1158 209.857C59.9058 209.815 59.7129 209.712 59.5615 209.561C59.4101 209.41 59.3071 209.217 59.2654 209.007C59.2237 208.798 59.2452 208.58 59.3272 208.383C59.4092 208.185 59.548 208.017 59.7261 207.898C59.9042 207.779 60.1136 207.716 60.3277 207.716C60.4698 207.716 60.6105 207.744 60.7418 207.798C60.8731 207.853 60.9923 207.932 61.0928 208.033C61.1933 208.133 61.273 208.252 61.3273 208.383C61.3816 208.514 61.4096 208.655 61.4095 208.797Z" fill="#E3EDFD"/>
<path d="M67.5676 208.797C67.5677 209.01 67.5042 209.219 67.3853 209.397C67.2664 209.575 67.0973 209.713 66.8996 209.795C66.7018 209.877 66.4841 209.898 66.2742 209.857C66.0642 209.815 65.8713 209.712 65.7199 209.561C65.5685 209.41 65.4654 209.217 65.4236 209.008C65.3819 208.798 65.4033 208.581 65.4852 208.383C65.5671 208.186 65.7059 208.017 65.8839 207.898C66.0619 207.779 66.2712 207.716 66.4853 207.716C66.6274 207.716 66.7682 207.744 66.8995 207.798C67.0309 207.852 67.1502 207.932 67.2507 208.032C67.3513 208.133 67.431 208.252 67.4854 208.383C67.5397 208.514 67.5677 208.655 67.5676 208.797Z" fill="#E3EDFD"/>
<path d="M73.7263 208.797C73.7264 209.01 73.6629 209.219 73.544 209.397C73.4251 209.575 73.256 209.713 73.0582 209.795C72.8605 209.877 72.6428 209.898 72.4328 209.857C72.2229 209.815 72.03 209.712 71.8786 209.561C71.7272 209.41 71.6241 209.217 71.5823 209.008C71.5406 208.798 71.562 208.581 71.6439 208.383C71.7259 208.186 71.8646 208.017 72.0426 207.898C72.2206 207.779 72.4299 207.716 72.644 207.716C72.7861 207.716 72.9269 207.744 73.0582 207.798C73.1895 207.853 73.3088 207.932 73.4093 208.032C73.5099 208.133 73.5896 208.252 73.644 208.383C73.6983 208.514 73.7263 208.655 73.7263 208.797Z" fill="#E3EDFD"/>
<path d="M79.8841 208.797C79.8841 209.01 79.8207 209.219 79.7017 209.397C79.5828 209.575 79.4137 209.713 79.2159 209.795C79.0181 209.877 78.8004 209.898 78.5904 209.857C78.3804 209.815 78.1875 209.712 78.0361 209.561C77.8848 209.41 77.7817 209.217 77.74 209.007C77.6983 208.798 77.7198 208.58 77.8018 208.383C77.8838 208.185 78.0226 208.017 78.2007 207.898C78.3788 207.779 78.5882 207.716 78.8023 207.716C79.0893 207.716 79.3644 207.83 79.5673 208.033C79.7702 208.235 79.8841 208.51 79.8841 208.797Z" fill="#E3EDFD"/>
<path d="M208.587 131.268C208.587 131.425 208.541 131.579 208.453 131.71C208.366 131.84 208.241 131.942 208.096 132.003C207.95 132.063 207.79 132.079 207.635 132.048C207.481 132.017 207.339 131.941 207.227 131.83C207.116 131.719 207.04 131.577 207.009 131.423C206.979 131.269 206.994 131.109 207.055 130.963C207.115 130.818 207.217 130.694 207.348 130.606C207.479 130.519 207.633 130.472 207.791 130.472C208.002 130.472 208.205 130.556 208.354 130.705C208.503 130.855 208.587 131.057 208.587 131.268Z" fill="#E3EDFD"/>
<path d="M213.12 131.268C213.12 131.425 213.073 131.579 212.985 131.71C212.898 131.84 212.773 131.942 212.628 132.002C212.482 132.063 212.322 132.078 212.168 132.048C212.013 132.017 211.871 131.941 211.76 131.83C211.648 131.719 211.572 131.577 211.542 131.423C211.511 131.269 211.527 131.109 211.587 130.963C211.647 130.818 211.749 130.694 211.88 130.606C212.011 130.519 212.165 130.472 212.323 130.472C212.534 130.472 212.737 130.556 212.886 130.705C213.036 130.855 213.119 131.057 213.12 131.268Z" fill="#E3EDFD"/>
<path d="M217.652 131.268C217.652 131.425 217.605 131.579 217.517 131.71C217.43 131.841 217.305 131.943 217.16 132.003C217.014 132.063 216.854 132.079 216.699 132.048C216.545 132.017 216.403 131.942 216.291 131.83C216.18 131.719 216.104 131.577 216.073 131.423C216.043 131.268 216.059 131.109 216.119 130.963C216.179 130.818 216.281 130.694 216.413 130.606C216.544 130.519 216.698 130.472 216.855 130.472C217.067 130.472 217.269 130.556 217.418 130.705C217.568 130.855 217.652 131.057 217.652 131.268Z" fill="#E3EDFD"/>
<path d="M222.184 131.268C222.184 131.425 222.137 131.579 222.049 131.71C221.962 131.84 221.837 131.942 221.692 132.003C221.546 132.063 221.386 132.079 221.232 132.048C221.077 132.017 220.935 131.941 220.824 131.83C220.712 131.719 220.636 131.577 220.606 131.423C220.575 131.269 220.591 131.109 220.651 130.963C220.711 130.818 220.814 130.694 220.945 130.606C221.076 130.519 221.23 130.472 221.387 130.472C221.492 130.472 221.595 130.493 221.692 130.533C221.789 130.573 221.876 130.631 221.95 130.705C222.024 130.779 222.083 130.867 222.123 130.963C222.163 131.06 222.184 131.163 222.184 131.268Z" fill="#E3EDFD"/>
<path d="M226.716 131.268C226.716 131.425 226.67 131.579 226.582 131.71C226.495 131.84 226.37 131.942 226.225 132.003C226.079 132.063 225.919 132.079 225.764 132.048C225.61 132.017 225.468 131.942 225.356 131.83C225.245 131.719 225.169 131.577 225.138 131.423C225.108 131.269 225.123 131.109 225.184 130.964C225.244 130.818 225.346 130.694 225.477 130.607C225.608 130.519 225.762 130.472 225.92 130.472C226.131 130.472 226.333 130.556 226.483 130.705C226.632 130.854 226.716 131.057 226.716 131.268Z" fill="#E3EDFD"/>
<path d="M231.248 131.268C231.248 131.425 231.201 131.579 231.114 131.71C231.026 131.841 230.902 131.943 230.756 132.003C230.611 132.063 230.45 132.079 230.296 132.048C230.141 132.018 229.999 131.942 229.888 131.83C229.776 131.719 229.7 131.577 229.67 131.423C229.639 131.269 229.655 131.109 229.715 130.963C229.775 130.818 229.878 130.694 230.009 130.606C230.14 130.519 230.294 130.472 230.452 130.472C230.663 130.473 230.865 130.556 231.015 130.706C231.164 130.855 231.248 131.057 231.248 131.268Z" fill="#E3EDFD"/>
<path d="M208.587 136.217C208.588 136.374 208.541 136.528 208.453 136.659C208.366 136.79 208.242 136.892 208.096 136.952C207.95 137.012 207.79 137.028 207.636 136.997C207.481 136.967 207.339 136.891 207.228 136.78C207.116 136.668 207.04 136.527 207.009 136.372C206.979 136.218 206.994 136.058 207.055 135.913C207.115 135.767 207.217 135.643 207.348 135.556C207.479 135.468 207.633 135.422 207.791 135.422C208.002 135.422 208.205 135.506 208.354 135.655C208.503 135.804 208.587 136.006 208.587 136.217Z" fill="#E3EDFD"/>
<path d="M213.12 136.217C213.12 136.374 213.073 136.528 212.985 136.659C212.898 136.789 212.774 136.891 212.628 136.952C212.482 137.012 212.322 137.028 212.168 136.997C212.013 136.966 211.871 136.891 211.76 136.78C211.648 136.668 211.572 136.527 211.542 136.372C211.511 136.218 211.527 136.058 211.587 135.913C211.647 135.767 211.749 135.643 211.88 135.556C212.011 135.468 212.165 135.422 212.323 135.422C212.534 135.422 212.737 135.506 212.886 135.655C213.035 135.804 213.119 136.006 213.12 136.217Z" fill="#E3EDFD"/>
<path d="M217.652 136.217C217.652 136.374 217.605 136.528 217.518 136.659C217.43 136.79 217.306 136.892 217.16 136.952C217.014 137.012 216.854 137.028 216.7 136.997C216.545 136.967 216.403 136.891 216.291 136.78C216.18 136.668 216.104 136.527 216.073 136.372C216.043 136.218 216.058 136.058 216.119 135.913C216.179 135.767 216.281 135.643 216.413 135.556C216.544 135.468 216.698 135.422 216.855 135.422C217.066 135.422 217.269 135.506 217.418 135.655C217.568 135.804 217.651 136.006 217.652 136.217Z" fill="#E3EDFD"/>
<path d="M222.184 136.217C222.184 136.374 222.137 136.528 222.05 136.659C221.962 136.79 221.838 136.892 221.692 136.952C221.547 137.012 221.386 137.028 221.232 136.997C221.077 136.967 220.935 136.891 220.824 136.78C220.712 136.668 220.636 136.527 220.606 136.372C220.575 136.218 220.591 136.058 220.651 135.913C220.711 135.767 220.814 135.643 220.945 135.556C221.076 135.468 221.23 135.422 221.387 135.422C221.598 135.422 221.801 135.506 221.95 135.655C222.1 135.804 222.184 136.006 222.184 136.217Z" fill="#E3EDFD"/>
<path d="M226.716 136.217C226.716 136.374 226.67 136.528 226.582 136.659C226.495 136.79 226.37 136.892 226.225 136.952C226.079 137.012 225.919 137.028 225.765 136.997C225.61 136.967 225.468 136.891 225.357 136.78C225.245 136.669 225.169 136.527 225.138 136.373C225.108 136.218 225.123 136.058 225.184 135.913C225.244 135.768 225.346 135.643 225.477 135.556C225.608 135.468 225.762 135.422 225.92 135.422C226.131 135.422 226.333 135.506 226.483 135.655C226.632 135.804 226.716 136.006 226.716 136.217Z" fill="#E3EDFD"/>
<path d="M231.248 136.217C231.248 136.374 231.201 136.528 231.114 136.659C231.026 136.79 230.902 136.892 230.756 136.952C230.611 137.012 230.45 137.028 230.296 136.998C230.141 136.967 229.999 136.891 229.888 136.78C229.776 136.669 229.7 136.527 229.67 136.372C229.639 136.218 229.655 136.058 229.715 135.913C229.775 135.767 229.878 135.643 230.009 135.556C230.14 135.468 230.294 135.422 230.452 135.422C230.663 135.422 230.865 135.506 231.014 135.655C231.164 135.804 231.248 136.006 231.248 136.217Z" fill="#E3EDFD"/>
<path d="M208.587 141.166C208.587 141.323 208.541 141.477 208.453 141.608C208.366 141.739 208.241 141.841 208.096 141.901C207.95 141.961 207.79 141.977 207.635 141.946C207.481 141.915 207.339 141.84 207.227 141.728C207.116 141.617 207.04 141.475 207.009 141.321C206.979 141.167 206.995 141.007 207.055 140.862C207.115 140.716 207.217 140.592 207.348 140.505C207.479 140.417 207.633 140.371 207.791 140.371C208.002 140.371 208.205 140.455 208.354 140.604C208.504 140.753 208.587 140.955 208.587 141.166Z" fill="#E3EDFD"/>
<path d="M213.12 141.166C213.119 141.323 213.073 141.477 212.985 141.608C212.898 141.739 212.773 141.841 212.628 141.901C212.482 141.961 212.322 141.977 212.167 141.946C212.013 141.915 211.871 141.84 211.76 141.728C211.648 141.617 211.572 141.475 211.542 141.321C211.511 141.167 211.527 141.007 211.587 140.862C211.647 140.716 211.749 140.592 211.88 140.505C212.011 140.417 212.165 140.371 212.323 140.371C212.534 140.371 212.737 140.455 212.886 140.604C213.036 140.753 213.12 140.955 213.12 141.166Z" fill="#E3EDFD"/>
<path d="M217.652 141.166C217.652 141.324 217.605 141.477 217.517 141.608C217.43 141.739 217.305 141.841 217.16 141.901C217.014 141.961 216.854 141.977 216.699 141.946C216.545 141.916 216.403 141.84 216.291 141.728C216.18 141.617 216.104 141.475 216.073 141.321C216.043 141.167 216.059 141.007 216.119 140.861C216.179 140.716 216.281 140.592 216.413 140.505C216.544 140.417 216.698 140.371 216.855 140.371C216.96 140.371 217.064 140.391 217.16 140.431C217.257 140.471 217.345 140.53 217.418 140.604C217.492 140.678 217.551 140.765 217.591 140.862C217.631 140.958 217.652 141.062 217.652 141.166Z" fill="#E3EDFD"/>
<path d="M222.184 141.166C222.184 141.323 222.137 141.477 222.049 141.608C221.962 141.739 221.837 141.841 221.692 141.901C221.546 141.961 221.386 141.977 221.231 141.946C221.077 141.915 220.935 141.84 220.824 141.728C220.712 141.617 220.636 141.475 220.606 141.321C220.575 141.167 220.591 141.007 220.651 140.862C220.711 140.716 220.814 140.592 220.945 140.505C221.076 140.417 221.23 140.371 221.387 140.371C221.492 140.371 221.595 140.391 221.692 140.431C221.789 140.471 221.877 140.53 221.951 140.604C222.024 140.678 222.083 140.765 222.123 140.862C222.163 140.958 222.184 141.062 222.184 141.166Z" fill="#E3EDFD"/>
<path d="M226.716 141.166C226.716 141.323 226.67 141.477 226.582 141.608C226.495 141.739 226.37 141.841 226.225 141.901C226.079 141.961 225.919 141.977 225.764 141.946C225.61 141.916 225.468 141.84 225.356 141.729C225.245 141.617 225.169 141.476 225.138 141.321C225.108 141.167 225.123 141.007 225.184 140.862C225.244 140.716 225.346 140.592 225.477 140.505C225.608 140.417 225.762 140.371 225.92 140.371C226.131 140.371 226.333 140.455 226.483 140.604C226.632 140.753 226.716 140.955 226.716 141.166Z" fill="#E3EDFD"/>
<path d="M231.248 141.166C231.248 141.324 231.201 141.477 231.114 141.608C231.026 141.739 230.902 141.841 230.756 141.901C230.61 141.961 230.45 141.977 230.296 141.946C230.141 141.916 229.999 141.84 229.888 141.729C229.776 141.617 229.7 141.476 229.67 141.321C229.639 141.167 229.655 141.007 229.715 140.862C229.775 140.716 229.878 140.592 230.009 140.505C230.14 140.417 230.294 140.371 230.452 140.371C230.663 140.371 230.865 140.455 231.015 140.604C231.164 140.753 231.248 140.955 231.248 141.166Z" fill="#E3EDFD"/>
<path d="M208.587 146.115C208.587 146.273 208.541 146.426 208.453 146.557C208.366 146.688 208.241 146.79 208.096 146.85C207.95 146.91 207.79 146.926 207.635 146.896C207.481 146.865 207.339 146.789 207.227 146.678C207.116 146.567 207.04 146.425 207.009 146.271C206.979 146.116 206.995 145.956 207.055 145.811C207.115 145.666 207.217 145.541 207.348 145.454C207.479 145.367 207.633 145.32 207.791 145.32C207.896 145.32 207.999 145.341 208.096 145.381C208.192 145.42 208.28 145.479 208.354 145.553C208.428 145.627 208.487 145.714 208.527 145.811C208.567 145.907 208.587 146.011 208.587 146.115Z" fill="#E3EDFD"/>
<path d="M213.12 146.115C213.12 146.273 213.073 146.426 212.985 146.557C212.898 146.688 212.773 146.79 212.628 146.85C212.482 146.91 212.322 146.926 212.168 146.895C212.013 146.865 211.871 146.789 211.76 146.678C211.648 146.566 211.572 146.425 211.542 146.27C211.511 146.116 211.527 145.956 211.587 145.811C211.647 145.666 211.749 145.541 211.88 145.454C212.011 145.367 212.165 145.32 212.323 145.32C212.428 145.32 212.531 145.341 212.628 145.381C212.725 145.42 212.812 145.479 212.886 145.553C212.96 145.627 213.019 145.714 213.059 145.811C213.099 145.907 213.12 146.011 213.12 146.115Z" fill="#E3EDFD"/>
<path d="M217.652 146.115C217.652 146.273 217.605 146.427 217.517 146.557C217.43 146.688 217.305 146.79 217.16 146.85C217.014 146.911 216.854 146.926 216.699 146.896C216.545 146.865 216.403 146.789 216.291 146.678C216.18 146.567 216.104 146.425 216.073 146.27C216.043 146.116 216.059 145.956 216.119 145.811C216.179 145.665 216.281 145.541 216.413 145.454C216.544 145.367 216.698 145.32 216.855 145.32C216.96 145.32 217.064 145.341 217.16 145.381C217.257 145.421 217.345 145.479 217.419 145.553C217.493 145.627 217.551 145.715 217.591 145.811C217.631 145.908 217.652 146.011 217.652 146.115Z" fill="#E3EDFD"/>
<path d="M222.184 146.115C222.184 146.273 222.137 146.427 222.049 146.557C221.962 146.688 221.837 146.79 221.692 146.85C221.546 146.911 221.386 146.926 221.231 146.896C221.077 146.865 220.935 146.789 220.824 146.678C220.712 146.567 220.636 146.425 220.606 146.27C220.575 146.116 220.591 145.956 220.651 145.811C220.711 145.666 220.814 145.541 220.945 145.454C221.076 145.367 221.23 145.32 221.387 145.32C221.492 145.32 221.595 145.341 221.692 145.38C221.789 145.42 221.877 145.479 221.951 145.553C222.025 145.627 222.083 145.714 222.123 145.811C222.163 145.907 222.184 146.011 222.184 146.115Z" fill="#E3EDFD"/>
<path d="M226.716 146.115C226.716 146.273 226.67 146.426 226.582 146.557C226.495 146.688 226.37 146.79 226.225 146.85C226.079 146.91 225.919 146.926 225.764 146.896C225.61 146.865 225.468 146.789 225.356 146.678C225.245 146.567 225.169 146.425 225.138 146.271C225.108 146.116 225.123 145.957 225.184 145.811C225.244 145.666 225.346 145.542 225.477 145.454C225.608 145.367 225.762 145.32 225.92 145.32C226.024 145.32 226.128 145.341 226.224 145.38C226.321 145.42 226.409 145.479 226.483 145.553C226.557 145.627 226.616 145.714 226.656 145.811C226.696 145.907 226.716 146.011 226.716 146.115Z" fill="#E3EDFD"/>
<path d="M231.248 146.115C231.248 146.273 231.201 146.427 231.114 146.557C231.026 146.688 230.902 146.79 230.756 146.851C230.61 146.911 230.45 146.927 230.296 146.896C230.141 146.865 229.999 146.789 229.888 146.678C229.776 146.567 229.7 146.425 229.67 146.271C229.639 146.116 229.655 145.956 229.715 145.811C229.775 145.666 229.878 145.541 230.009 145.454C230.14 145.367 230.294 145.32 230.452 145.32C230.663 145.32 230.865 145.404 231.015 145.553C231.164 145.702 231.248 145.904 231.248 146.115Z" fill="#E3EDFD"/>
<path d="M140.393 252.936C140.393 252.936 134.333 222.574 139.852 224.627C145.371 226.68 146.129 250.127 143.639 253.477" fill="#E3EDFD"/>
<path d="M140.393 252.936C140.393 252.936 134.333 222.574 139.852 224.627C145.371 226.68 146.129 250.127 143.639 253.477" stroke="#7BB1F1" stroke-width="1.19242" stroke-miterlimit="10"/>
<path d="M139.805 254.054C139.805 254.054 138.726 241.656 132.787 242.302C126.848 242.95 135.487 253.083 136.998 254.054" fill="#E3EDFD"/>
<path d="M139.805 254.054C139.805 254.054 138.726 241.656 132.787 242.302C126.848 242.95 135.487 253.083 136.998 254.054" stroke="#7BB1F1" stroke-width="1.19242" stroke-linecap="round" stroke-linejoin="round"/>
<path d="M132.895 237.236C132.895 237.236 131.275 242.087 135.594 241.225C139.914 240.362 138.658 240.2 138.658 240.2" fill="#E3EDFD"/>
<path d="M132.895 237.236C132.895 237.236 131.275 242.087 135.594 241.225C139.914 240.362 138.658 240.2 138.658 240.2" stroke="#7BB1F1" stroke-width="1.19242" stroke-miterlimit="10"/>
<path d="M141.101 253.946C141.101 253.946 139.697 235.403 137.646 234.649C135.594 233.894 132.139 235.511 132.895 237.236C133.651 238.961 138.726 254.054 138.726 254.054" fill="#DCE8F6"/>
<path d="M141.101 253.946C141.101 253.946 139.697 235.403 137.646 234.649C135.594 233.894 132.139 235.511 132.895 237.236C133.651 238.961 138.726 254.054 138.726 254.054" stroke="#7BB1F1" stroke-width="1.19242" stroke-linecap="round" stroke-linejoin="round"/>
<path d="M153.379 233.596C153.379 233.596 154.786 239.43 152.081 241.375C149.375 243.319 147.319 239.754 147.319 239.754L146.886 233.38" fill="#E3EDFD"/>
<path d="M153.379 233.596C153.379 233.596 154.786 239.43 152.081 241.375C149.375 243.319 147.319 239.754 147.319 239.754L146.886 233.38" stroke="#7BB1F1" stroke-width="1.19242" stroke-miterlimit="10"/>
<path d="M142.232 253.584C142.232 253.584 143.748 228.949 149.05 230.462C154.353 231.975 153.379 234.892 153.379 234.892C153.379 234.892 152.081 233.704 151.323 235.216C150.565 236.729 146.669 254.017 146.669 254.017" fill="#DCE8F6"/>
<path d="M142.232 253.584C142.232 253.584 143.748 228.949 149.05 230.462C154.353 231.975 153.379 234.892 153.379 234.892C153.379 234.892 152.081 233.704 151.323 235.216C150.565 236.729 146.669 254.017 146.669 254.017" stroke="#7BB1F1" stroke-width="1.19242" stroke-linecap="round" stroke-linejoin="round"/>
<path d="M144.62 253.632C144.62 253.632 146.787 241.377 152.645 242.543C158.504 243.709 149.008 253.045 147.416 253.879" fill="#E3EDFD"/>
<path d="M144.62 253.632C144.62 253.632 146.787 241.377 152.645 242.543C158.504 243.709 149.008 253.045 147.416 253.879" stroke="#7BB1F1" stroke-width="1.19242" stroke-miterlimit="10"/>
<path d="M139.743 226.14C139.743 226.14 142.587 243.854 141.612 253.579" stroke="#7BB1F1" stroke-width="0.794946" stroke-linecap="round" stroke-linejoin="round"/>
<path d="M135.631 235.649C135.631 235.649 139.31 248.506 139.635 252.936" stroke="#7BB1F1" stroke-width="0.794946" stroke-linecap="round" stroke-linejoin="round"/>
<path d="M132.709 243.968C132.709 243.968 137.037 250.452 137.687 253.26" stroke="#7BB1F1" stroke-width="0.794946" stroke-linecap="round" stroke-linejoin="round"/>
<path d="M149.267 232.191C149.267 232.191 144.829 245.48 143.639 252.72" stroke="#7BB1F1" stroke-width="0.794946" stroke-linecap="round" stroke-linejoin="round"/>
<path d="M145.747 253.506L145.643 253.447C148.106 249.064 151.566 244.518 151.6 244.472L151.695 244.545C151.66 244.59 148.206 249.131 145.747 253.506Z" stroke="#7BB1F1" stroke-width="0.794946" stroke-linecap="round" stroke-linejoin="round"/>
<path d="M151.648 253.046H133.755V257.042H151.648V253.046Z" fill="#E3EDFD" stroke="#7BB1F1" stroke-width="1.19242" stroke-miterlimit="10"/>
<path d="M293.155 194.955V192.592H291.26C291.106 191.816 290.799 191.078 290.359 190.42L291.698 189.083L290.025 187.411L288.685 188.749C288.026 188.309 287.287 188.003 286.51 187.849V185.958H284.143V187.849C283.366 188.003 282.626 188.309 281.968 188.749L280.628 187.411L278.954 189.083L280.294 190.42C279.853 191.078 279.547 191.816 279.393 192.592H277.498V194.955H279.393C279.547 195.731 279.853 196.469 280.294 197.126L278.954 198.464L280.628 200.136L281.968 198.798C282.626 199.238 283.366 199.544 284.143 199.698V201.589H286.51V199.698C287.287 199.544 288.026 199.238 288.685 198.798L290.025 200.136L291.698 198.464L290.359 197.126C290.799 196.469 291.106 195.731 291.26 194.955H293.155ZM285.327 197.123C284.663 197.123 284.014 196.927 283.462 196.559C282.911 196.191 282.481 195.668 282.227 195.056C281.973 194.444 281.906 193.77 282.035 193.12C282.165 192.47 282.484 191.873 282.954 191.405C283.423 190.936 284.021 190.617 284.671 190.488C285.322 190.359 285.997 190.425 286.61 190.679C287.223 190.932 287.747 191.361 288.116 191.912C288.484 192.463 288.681 193.111 288.681 193.773C288.681 194.662 288.328 195.514 287.699 196.142C287.069 196.77 286.216 197.123 285.327 197.123Z" fill="#E3EDFD"/>
<path d="M217.041 132.797V131.14H215.713C215.605 130.596 215.39 130.078 215.081 129.617L216.02 128.679L214.846 127.507L213.907 128.445C213.445 128.136 212.927 127.922 212.382 127.814V126.488H210.722V127.814C210.177 127.922 209.659 128.136 209.197 128.445L208.258 127.507L207.084 128.679L208.023 129.617C207.714 130.078 207.499 130.596 207.391 131.14H206.063V132.797H207.391C207.499 133.341 207.714 133.859 208.023 134.32L207.084 135.258L208.258 136.43L209.197 135.492C209.659 135.8 210.177 136.015 210.722 136.123V137.449H212.382V136.123C212.927 136.015 213.445 135.8 213.907 135.492L214.846 136.43L216.02 135.258L215.081 134.32C215.39 133.859 215.605 133.341 215.713 132.797H217.041ZM211.552 134.317C211.087 134.317 210.632 134.18 210.245 133.922C209.858 133.663 209.557 133.297 209.379 132.867C209.201 132.438 209.154 131.966 209.245 131.51C209.335 131.055 209.559 130.636 209.888 130.308C210.217 129.979 210.637 129.755 211.093 129.665C211.549 129.574 212.022 129.621 212.452 129.798C212.882 129.976 213.25 130.277 213.508 130.663C213.767 131.05 213.905 131.504 213.905 131.968C213.905 132.591 213.657 133.189 213.216 133.629C212.774 134.07 212.176 134.317 211.552 134.317Z" fill="#E3EDFD"/>
<path d="M217.551 240.743C217.551 241.297 217.442 241.845 217.23 242.357C217.018 242.869 216.706 243.334 216.314 243.725C215.922 244.117 215.456 244.428 214.943 244.64C214.431 244.852 213.881 244.96 213.327 244.96H182.909C182.355 244.96 181.805 244.851 181.293 244.64C180.78 244.428 180.314 244.117 179.922 243.725C179.53 243.334 179.219 242.869 179.007 242.357C178.794 241.845 178.685 241.297 178.686 240.743C178.685 240.189 178.794 239.64 179.006 239.128C179.219 238.617 179.53 238.152 179.922 237.76C180.314 237.368 180.78 237.057 181.293 236.845C181.805 236.633 182.355 236.524 182.909 236.525H213.327C213.881 236.524 214.431 236.633 214.943 236.845C215.456 237.057 215.922 237.368 216.314 237.76C216.707 238.151 217.018 238.616 217.23 239.128C217.442 239.64 217.551 240.189 217.551 240.743Z" fill="white" stroke="#7BB1F1" stroke-width="1.19242" stroke-linecap="round" stroke-linejoin="round"/>
<path d="M217.551 216.447C217.551 217.001 217.442 217.55 217.23 218.062C217.018 218.573 216.706 219.038 216.314 219.43C215.922 219.822 215.456 220.133 214.943 220.344C214.431 220.556 213.881 220.665 213.327 220.665H182.909C182.355 220.665 181.805 220.556 181.293 220.344C180.78 220.132 180.314 219.822 179.922 219.43C179.53 219.038 179.219 218.573 179.007 218.061C178.794 217.55 178.685 217.001 178.686 216.447C178.685 215.893 178.794 215.345 179.007 214.833C179.219 214.321 179.53 213.856 179.922 213.465C180.314 213.073 180.78 212.762 181.293 212.55C181.805 212.339 182.355 212.23 182.909 212.23H213.327C213.881 212.23 214.431 212.339 214.943 212.55C215.456 212.762 215.922 213.073 216.314 213.465C216.706 213.856 217.018 214.321 217.23 214.833C217.442 215.345 217.551 215.893 217.551 216.447Z" fill="white" stroke="#7BB1F1" stroke-width="1.19242" stroke-linecap="round" stroke-linejoin="round"/>
<path d="M199.162 217.743C199.162 218.009 199.11 218.272 199.008 218.518C198.906 218.764 198.757 218.987 198.568 219.175C198.38 219.363 198.156 219.512 197.91 219.614C197.664 219.716 197.4 219.768 197.134 219.768H182.531C182.264 219.768 182.001 219.716 181.755 219.614C181.508 219.512 181.285 219.363 181.096 219.175C180.908 218.987 180.759 218.764 180.657 218.518C180.555 218.272 180.503 218.009 180.503 217.743C180.503 217.477 180.555 217.214 180.657 216.968C180.759 216.722 180.908 216.499 181.097 216.311C181.285 216.123 181.509 215.974 181.755 215.872C182.001 215.77 182.265 215.718 182.531 215.718H197.134C197.4 215.718 197.664 215.77 197.91 215.872C198.156 215.974 198.38 216.123 198.568 216.311C198.757 216.499 198.906 216.722 199.008 216.968C199.11 217.214 199.162 217.477 199.162 217.743Z" fill="#E3EDFD"/>
<path d="M199.861 241.766C199.861 242.032 199.808 242.295 199.706 242.541C199.604 242.787 199.455 243.01 199.267 243.198C199.078 243.386 198.855 243.536 198.609 243.637C198.363 243.739 198.099 243.791 197.832 243.791H183.229C182.963 243.791 182.699 243.739 182.453 243.637C182.207 243.536 181.983 243.386 181.795 243.198C181.606 243.01 181.457 242.787 181.355 242.541C181.253 242.295 181.201 242.032 181.201 241.766C181.201 241.5 181.253 241.237 181.355 240.991C181.457 240.745 181.607 240.522 181.795 240.334C181.983 240.146 182.207 239.997 182.453 239.895C182.699 239.793 182.963 239.741 183.229 239.741H197.832C198.099 239.741 198.362 239.794 198.609 239.895C198.855 239.997 199.078 240.146 199.267 240.334C199.455 240.522 199.604 240.745 199.706 240.991C199.808 241.237 199.861 241.5 199.861 241.766Z" fill="#E3EDFD"/>
<path d="M221.716 210.176L220.143 212.975L216.861 215.706L224.177 216.184L223.493 213.999L224.314 210.723" fill="#E3EDFD"/>
<path d="M221.716 210.176L220.143 212.975L216.861 215.706L224.177 216.184L223.493 213.999L224.314 210.723" stroke="#7BB1F1" stroke-width="1.19242" stroke-linecap="round" stroke-linejoin="round"/>
<path d="M210.175 197.521C208.367 197.507 206.572 197.825 204.878 198.457C204.855 198.456 204.832 198.453 204.808 198.453C203.774 198.453 202.783 199.095 201.867 200.268C201.048 201.034 200.507 201.92 200.332 202.873C197.948 208.016 196.363 217.142 196.363 227.545C196.363 243.612 200.144 256.636 204.808 256.636C205.247 256.636 208.721 256.834 210.175 256.834C215.647 256.834 220.083 254.136 220.083 250.808V203.548C220.083 200.22 215.647 197.521 210.175 197.521Z" fill="white" stroke="#7BB1F1" stroke-width="1.19242" stroke-linecap="round" stroke-linejoin="round"/>
<path d="M224.516 227.545C224.516 243.612 220.734 256.636 216.07 256.636C211.405 256.636 207.624 243.612 207.624 227.545C207.624 211.478 211.405 198.453 216.07 198.453C220.734 198.453 224.516 211.478 224.516 227.545Z" fill="#E3EDFD" stroke="#7BB1F1" stroke-width="1.19242" stroke-miterlimit="10"/>
<path d="M262.276 227.272C262.277 225.571 262.953 223.94 264.158 222.738C265.362 221.536 266.995 220.86 268.698 220.86H299.115C300.818 220.86 302.452 221.536 303.656 222.738C304.86 223.94 305.537 225.571 305.537 227.272C305.537 228.972 304.86 230.603 303.656 231.805C302.452 233.007 300.818 233.683 299.115 233.683H268.698C266.995 233.683 265.362 233.007 264.158 231.805C262.953 230.603 262.277 228.972 262.276 227.272Z" fill="white" stroke="#7BB1F1" stroke-width="1.19242" stroke-linecap="round" stroke-linejoin="round"/>
<path d="M301.656 222.363C301.553 223.757 300.926 225.06 299.901 226.011C298.876 226.963 297.528 227.492 296.128 227.492H269.851C268.741 227.494 267.657 227.162 266.739 226.539C266.729 226.674 266.718 226.81 266.718 226.948C266.718 228.417 267.303 229.826 268.344 230.865C269.384 231.903 270.795 232.487 272.267 232.487H298.544C299.731 232.487 300.887 232.107 301.841 231.403C302.796 230.698 303.499 229.707 303.848 228.574C304.196 227.44 304.171 226.226 303.777 225.108C303.382 223.99 302.639 223.028 301.656 222.363Z" fill="#E3EDFD"/>
<path d="M248.758 224.91C248.758 223.336 249.068 221.779 249.671 220.325C250.274 218.872 251.158 217.551 252.272 216.439C253.386 215.326 254.709 214.444 256.164 213.842C257.62 213.24 259.18 212.93 260.756 212.93C262.332 212.93 263.892 213.24 265.348 213.842C266.803 214.444 268.126 215.326 269.24 216.439C270.354 217.551 271.238 218.872 271.841 220.325C272.444 221.779 272.754 223.336 272.754 224.91V229.633C272.754 231.206 272.444 232.764 271.841 234.218C271.238 235.671 270.355 236.992 269.24 238.104C268.126 239.217 266.804 240.099 265.348 240.701C263.892 241.303 262.332 241.613 260.756 241.613C259.18 241.613 257.62 241.303 256.164 240.701C254.708 240.099 253.386 239.217 252.272 238.104C251.157 236.992 250.274 235.671 249.671 234.218C249.068 232.764 248.758 231.206 248.758 229.633V224.91Z" fill="white" stroke="#7BB1F1" stroke-width="1.19242" stroke-linecap="round" stroke-linejoin="round"/>
<path d="M265.748 234.236C264.326 234.236 262.917 233.957 261.603 233.413C260.289 232.87 259.095 232.073 258.089 231.069C257.083 230.065 256.286 228.873 255.741 227.561C255.197 226.249 254.917 224.842 254.917 223.422V219.159C254.916 217.719 255.203 216.293 255.762 214.966C254.109 215.913 252.736 217.278 251.781 218.924C250.827 220.571 250.324 222.44 250.325 224.342V228.606C250.325 231.103 251.191 233.523 252.775 235.455C254.358 237.387 256.563 238.712 259.015 239.206C261.466 239.7 264.013 239.332 266.223 238.164C268.434 236.996 270.171 235.101 271.141 232.799C269.501 233.743 267.641 234.238 265.748 234.236Z" fill="#E3EDFD"/>
<path d="M247.068 204.663H223.073C221.162 204.662 219.274 205.066 217.532 205.849C212.989 215.627 210.892 237.457 217.533 248.694C219.275 249.477 221.163 249.881 223.073 249.879H247.068C248.844 249.879 250.602 249.53 252.242 248.852C253.882 248.174 255.372 247.18 256.628 245.927C257.883 244.673 258.879 243.185 259.558 241.548C260.238 239.91 260.587 238.155 260.587 236.383V218.16C260.587 216.388 260.238 214.633 259.558 212.995C258.879 211.357 257.883 209.869 256.628 208.616C255.372 207.363 253.882 206.369 252.242 205.69C250.602 205.012 248.844 204.663 247.068 204.663Z" fill="white" stroke="#7BB1F1" stroke-width="1.19242" stroke-linecap="round" stroke-linejoin="round"/>
<path d="M255.627 241.407H234.063C232.347 241.409 230.65 241.046 229.085 240.342C224.13 231.958 224.59 217.015 227.225 207.154H223.879C222.163 207.153 220.466 207.516 218.9 208.22C214.817 217.007 212.933 236.624 218.901 246.722C220.466 247.425 222.163 247.788 223.879 247.787H245.443C247.64 247.788 249.796 247.194 251.681 246.068C253.567 244.942 255.111 243.327 256.15 241.394C255.976 241.402 255.802 241.407 255.627 241.407Z" fill="#E3EDFD"/>
<path d="M254.662 163.009C254.662 163.63 254.54 164.245 254.302 164.819C254.064 165.392 253.715 165.914 253.275 166.353C252.835 166.792 252.313 167.14 251.738 167.378C251.164 167.616 250.548 167.738 249.926 167.738H234.137C232.881 167.738 231.676 167.24 230.788 166.353C229.9 165.466 229.401 164.263 229.401 163.009C229.401 161.755 229.9 160.552 230.788 159.665C231.676 158.778 232.881 158.28 234.137 158.28H249.926C250.548 158.28 251.164 158.402 251.738 158.64C252.313 158.878 252.835 159.226 253.275 159.665C253.715 160.104 254.064 160.625 254.302 161.199C254.54 161.773 254.662 162.388 254.662 163.009Z" fill="#E3EDFD"/>
<path d="M235.015 163.009H229.401V167.719H235.015V163.009Z" fill="#E3EDFD"/>
<path d="M75.8741 154.631H52.9101C49.1055 154.631 46.021 158.14 46.021 162.469C46.021 166.797 49.1055 170.307 52.9101 170.307H75.8741C76.0791 170.307 76.2818 170.294 76.4823 170.275H82.7632V162.469C82.7632 158.14 79.6788 154.631 75.8741 154.631Z" fill="#E3EDFD"/>
<path d="M238.172 162.853C238.172 162.992 238.131 163.127 238.054 163.242C237.977 163.357 237.867 163.447 237.739 163.5C237.611 163.553 237.47 163.567 237.333 163.54C237.197 163.513 237.072 163.446 236.974 163.348C236.876 163.25 236.809 163.126 236.782 162.99C236.755 162.854 236.769 162.713 236.822 162.585C236.875 162.457 236.965 162.347 237.081 162.27C237.196 162.193 237.332 162.152 237.47 162.152C237.563 162.152 237.654 162.17 237.739 162.206C237.824 162.241 237.901 162.292 237.967 162.358C238.032 162.423 238.083 162.5 238.119 162.585C238.154 162.67 238.172 162.761 238.172 162.853Z" fill="white"/>
<path d="M242.733 162.853C242.733 162.992 242.692 163.127 242.615 163.242C242.538 163.357 242.428 163.447 242.3 163.5C242.172 163.553 242.031 163.567 241.894 163.54C241.758 163.513 241.633 163.446 241.535 163.348C241.437 163.25 241.37 163.126 241.343 162.99C241.316 162.854 241.33 162.713 241.383 162.585C241.436 162.457 241.526 162.347 241.642 162.27C241.757 162.193 241.893 162.152 242.031 162.152C242.124 162.152 242.215 162.17 242.3 162.206C242.385 162.241 242.462 162.292 242.528 162.358C242.593 162.423 242.644 162.5 242.68 162.585C242.715 162.67 242.733 162.761 242.733 162.853Z" fill="white"/>
<path d="M247.294 162.853C247.294 162.992 247.253 163.127 247.176 163.242C247.099 163.357 246.989 163.447 246.861 163.5C246.733 163.553 246.591 163.567 246.455 163.54C246.319 163.513 246.194 163.446 246.096 163.348C245.998 163.25 245.931 163.125 245.904 162.989C245.877 162.854 245.891 162.713 245.944 162.585C245.997 162.457 246.087 162.347 246.203 162.27C246.318 162.193 246.454 162.152 246.592 162.152C246.685 162.152 246.776 162.17 246.861 162.206C246.946 162.241 247.023 162.293 247.089 162.358C247.154 162.423 247.205 162.5 247.241 162.585C247.276 162.67 247.294 162.761 247.294 162.853Z" fill="white"/>
<path d="M58.1306 163.924H57.3116L56.9707 166.006H55.9584L56.2992 163.924H55.1699V162.995H56.4518L56.6757 161.654H55.5513V160.724H56.8282L57.1792 158.611H58.1865L57.8405 160.724H58.6596L59.0106 158.611H60.0229L59.672 160.724H60.8471V161.654H59.5192L59.2955 162.995H60.4604V163.924H59.1429L58.8019 166.006H57.7896L58.1306 163.924ZM57.464 162.995H58.2831L58.507 161.654H57.6879L57.464 162.995Z" fill="white"/>
<path d="M65.1478 163.924H64.3287L63.9878 166.006H62.9755L63.3163 163.924H62.187V162.995H63.4689L63.6927 161.654H62.5685V160.724H63.8454L64.1963 158.611H65.2037L64.8577 160.724H65.6767L66.0278 158.611H67.0401L66.6891 160.724H67.8642V161.654H66.5364L66.3126 162.995H67.4776V163.924H66.16L65.8191 166.006H64.8068L65.1478 163.924ZM64.4811 162.995H65.3003L65.5241 161.654H64.705L64.4811 162.995Z" fill="white"/>
<path d="M72.1648 163.924H71.3458L71.0049 166.006H69.9926L70.3335 163.924H69.2041V162.995H70.4861L70.7098 161.654H69.5856V160.724H70.8624L71.2134 158.611H72.2208L71.8748 160.724H72.6938L73.0449 158.611H74.0571L73.7062 160.724H74.8813V161.654H73.5535L73.3297 162.995H74.4947V163.924H73.1771L72.8362 166.006H71.8238L72.1648 163.924ZM71.4982 162.995H72.3174L72.5412 161.654H71.7221L71.4982 162.995Z" fill="white"/>
<defs>
<linearGradient id="paint0_linear_1241_19822" x1="172.427" y1="0.472778" x2="172.427" y2="345.326" gradientUnits="userSpaceOnUse">
<stop stop-color="white" stop-opacity="0"/>
<stop offset="1" stop-color="#EDF3FE"/>
</linearGradient>
</defs>
</svg>
