<svg width="314" height="275" viewBox="0 0 314 275" fill="none" xmlns="http://www.w3.org/2000/svg">
<path d="M141.624 274.102C212.529 274.102 270.009 216.622 270.009 145.717C270.009 74.8118 212.529 17.3317 141.624 17.3317C70.7186 17.3317 13.2385 74.8118 13.2385 145.717C13.2385 216.622 70.7186 274.102 141.624 274.102Z" fill="url(#paint0_linear_1241_19437)"/>
<path d="M210.887 47.2064H68.6631C59.7981 47.2064 52.6116 54.3929 52.6116 63.2579H226.939C226.939 54.3929 219.752 47.2064 210.887 47.2064Z" fill="#C6DAFB"/>
<path d="M52.6116 62.8192H226.939V195.59C226.939 201.493 224.594 207.154 220.42 211.328C216.245 215.502 210.584 217.847 204.681 217.847H74.8691C68.966 217.847 63.3047 215.502 59.1306 211.328C54.9565 207.154 52.6116 201.493 52.6116 195.59V62.8192Z" fill="url(#paint1_linear_1241_19437)"/>
<path d="M196.973 79.5895H82.6338C80.2526 79.5895 78.3223 81.5177 78.3223 83.8963C78.3223 86.2749 80.2526 88.2032 82.6338 88.2032H196.973C199.354 88.2032 201.284 86.2749 201.284 83.8963C201.284 81.5177 199.354 79.5895 196.973 79.5895Z" fill="url(#paint2_linear_1241_19437)"/>
<path d="M196.973 116.186H82.6338C80.2526 116.186 78.3223 118.114 78.3223 120.493C78.3223 122.871 80.2526 124.799 82.6338 124.799H196.973C199.354 124.799 201.284 122.871 201.284 120.493C201.284 118.114 199.354 116.186 196.973 116.186Z" fill="url(#paint3_linear_1241_19437)"/>
<path d="M196.973 152.782H82.6338C80.2526 152.782 78.3223 154.71 78.3223 157.089C78.3223 159.467 80.2526 161.396 82.6338 161.396H196.973C199.354 161.396 201.284 159.467 201.284 157.089C201.284 154.71 199.354 152.782 196.973 152.782Z" fill="url(#paint4_linear_1241_19437)"/>
<path d="M196.973 189.378H82.6338C80.2526 189.378 78.3223 191.306 78.3223 193.685C78.3223 196.064 80.2526 197.992 82.6338 197.992H196.973C199.354 197.992 201.284 196.064 201.284 193.685C201.284 191.306 199.354 189.378 196.973 189.378Z" fill="url(#paint5_linear_1241_19437)"/>
<g filter="url(#filter0_d_1241_19437)">
<path d="M81.8593 144.932H20.9755C16.0843 144.932 12.1191 148.897 12.1191 153.789V240.812C12.1191 245.703 16.0843 249.669 20.9755 249.669H81.8593C86.7505 249.669 90.7156 245.703 90.7156 240.812V153.789C90.7156 148.897 86.7505 144.932 81.8593 144.932Z" fill="url(#paint6_linear_1241_19437)"/>
</g>
<g filter="url(#filter1_d_1241_19437)">
<path d="M255.176 9H187.927C184.794 9 182.253 11.5403 182.253 14.674V46.2825C182.253 49.4161 184.794 51.9565 187.927 51.9565H255.176C258.31 51.9565 260.85 49.4161 260.85 46.2825V14.674C260.85 11.5403 258.31 9 255.176 9Z" fill="url(#paint7_linear_1241_19437)"/>
</g>
<path d="M75.0654 188.468H27.7694C26.1768 188.468 24.8857 189.759 24.8857 191.351V191.361C24.8857 192.953 26.1768 194.244 27.7694 194.244H75.0654C76.658 194.244 77.9491 192.953 77.9491 191.361V191.351C77.9491 189.759 76.658 188.468 75.0654 188.468Z" fill="url(#paint8_linear_1241_19437)"/>
<path d="M75.0922 229.115H28.2026C26.6237 229.115 25.3438 230.366 25.3438 231.909V231.918C25.3438 233.461 26.6237 234.712 28.2026 234.712H75.0922C76.6711 234.712 77.9511 233.461 77.9511 231.918V231.909C77.9511 230.366 76.6711 229.115 75.0922 229.115Z" fill="url(#paint9_linear_1241_19437)"/>
<path d="M75.0922 207.848H28.2026C26.6237 207.848 25.3438 209.099 25.3438 210.642V210.651C25.3438 212.194 26.6237 213.445 28.2026 213.445H75.0922C76.6711 213.445 77.9511 212.194 77.9511 210.651V210.642C77.9511 209.099 76.6711 207.848 75.0922 207.848Z" fill="url(#paint10_linear_1241_19437)"/>
<path d="M45.0625 158.371H31.2414C28.1799 158.371 25.698 160.853 25.698 163.914V167.75C25.698 170.811 28.1799 173.293 31.2414 173.293H45.0625C48.124 173.293 50.6059 170.811 50.6059 167.75V163.914C50.6059 160.853 48.124 158.371 45.0625 158.371Z" fill="url(#paint11_linear_1241_19437)"/>
<path d="M198.85 36.9967C202.453 36.9967 205.374 34.0762 205.374 30.4735C205.374 26.8708 202.453 23.9502 198.85 23.9502C195.248 23.9502 192.327 26.8708 192.327 30.4735C192.327 34.0762 195.248 36.9967 198.85 36.9967Z" fill="#E3EDFD"/>
<path d="M222.162 36.9967C225.765 36.9967 228.686 34.0762 228.686 30.4735C228.686 26.8708 225.765 23.9502 222.162 23.9502C218.56 23.9502 215.639 26.8708 215.639 30.4735C215.639 34.0762 218.56 36.9967 222.162 36.9967Z" fill="#E3EDFD"/>
<path d="M245.474 36.9967C249.077 36.9967 251.997 34.0762 251.997 30.4735C251.997 26.8708 249.077 23.9502 245.474 23.9502C241.871 23.9502 238.951 26.8708 238.951 30.4735C238.951 34.0762 241.871 36.9967 245.474 36.9967Z" fill="#E3EDFD"/>
<g filter="url(#filter2_b_1241_19437)">
<path d="M244.532 262.886C276.791 262.886 302.942 236.734 302.942 204.475C302.942 172.216 276.791 146.064 244.532 146.064C212.272 146.064 186.121 172.216 186.121 204.475C186.121 236.734 212.272 262.886 244.532 262.886Z" fill="url(#paint12_linear_1241_19437)" fill-opacity="0.2"/>
</g>
<path fill-rule="evenodd" clip-rule="evenodd" d="M313.525 205.594C313.525 243.698 282.635 274.588 244.531 274.588C206.427 274.588 175.538 243.698 175.538 205.594C175.538 167.49 206.427 136.601 244.531 136.601C282.635 136.601 313.525 167.49 313.525 205.594ZM302.942 205.594C302.942 237.854 276.79 264.005 244.531 264.005C212.272 264.005 186.12 237.854 186.12 205.594C186.12 173.335 212.272 147.184 244.531 147.184C276.79 147.184 302.942 173.335 302.942 205.594Z" fill="#C6DAFB"/>
<path d="M258.567 204.475L275.272 187.733C276.837 186.077 277.694 183.875 277.662 181.597C277.63 179.318 276.71 177.142 275.099 175.531C273.488 173.92 271.312 173 269.033 172.968C266.755 172.936 264.554 173.793 262.897 175.358L246.155 192.1L229.451 175.358C228.647 174.508 227.68 173.827 226.609 173.356C225.537 172.885 224.382 172.634 223.212 172.617C222.042 172.601 220.88 172.819 219.795 173.259C218.711 173.7 217.726 174.353 216.898 175.18C216.071 176.008 215.417 176.993 214.977 178.078C214.537 179.162 214.319 180.324 214.335 181.494C214.352 182.665 214.603 183.82 215.074 184.891C215.544 185.963 216.225 186.929 217.076 187.733L233.809 204.475L217.076 221.217C216.225 222.021 215.544 222.987 215.074 224.059C214.603 225.13 214.352 226.285 214.335 227.456C214.319 228.626 214.537 229.788 214.977 230.872C215.417 231.957 216.071 232.942 216.898 233.77C217.726 234.597 218.711 235.25 219.795 235.691C220.88 236.131 222.042 236.349 223.212 236.333C224.382 236.316 225.537 236.065 226.609 235.594C227.68 235.123 228.647 234.442 229.451 233.592L246.193 216.85L262.935 233.592C264.607 235.064 266.777 235.844 269.004 235.772C271.231 235.7 273.347 234.781 274.92 233.203C276.493 231.625 277.405 229.507 277.471 227.28C277.536 225.053 276.75 222.885 275.272 221.217L258.567 204.475Z" fill="url(#paint13_linear_1241_19437)"/>
<g filter="url(#filter3_f_1241_19437)">
<ellipse cx="245.344" cy="233.875" rx="41.062" ry="6.06598" fill="#EC5575" fill-opacity="0.56"/>
</g>
<path d="M130.973 233.983C131.491 231.839 134.541 231.839 135.058 233.983L137.288 243.219C137.472 243.985 138.071 244.583 138.837 244.768L148.072 246.997C150.216 247.515 150.216 250.564 148.072 251.082L138.837 253.311C138.071 253.496 137.472 254.094 137.288 254.861L135.058 264.096C134.541 266.24 131.491 266.24 130.973 264.096L128.744 254.861C128.559 254.094 127.961 253.496 127.195 253.311L117.96 251.082C115.815 250.564 115.815 247.515 117.96 246.997L127.195 244.768C127.961 244.583 128.559 243.985 128.744 243.219L130.973 233.983Z" fill="#C6DAFB"/>
<path d="M38.0711 19.0766C38.5886 16.9325 41.6383 16.9325 42.1558 19.0766L44.3852 28.3118C44.5701 29.078 45.1683 29.6762 45.9345 29.8612L55.1697 32.0905C57.3138 32.608 57.3138 35.6577 55.1697 36.1752L45.9345 38.4046C45.1683 38.5895 44.5701 39.1877 44.3852 39.9539L42.1558 49.1891C41.6383 51.3332 38.5886 51.3332 38.0711 49.1891L35.8417 39.9539C35.6568 39.1877 35.0586 38.5895 34.2924 38.4046L25.0572 36.1752C22.9131 35.6577 22.9131 32.608 25.0572 32.0905L34.2924 29.8612C35.0586 29.6762 35.6568 29.078 35.8417 28.3118L38.0711 19.0766Z" fill="#C6DAFB"/>
<path fill-rule="evenodd" clip-rule="evenodd" d="M136.505 21.3945C138.67 21.3945 140.425 19.6397 140.425 17.475C140.425 15.3103 138.67 13.5555 136.505 13.5555C134.341 13.5555 132.586 15.3103 132.586 17.475C132.586 19.6397 134.341 21.3945 136.505 21.3945ZM136.505 24.3341C140.294 24.3341 143.365 21.2632 143.365 17.475C143.365 13.6868 140.294 10.6158 136.505 10.6158C132.717 10.6158 129.646 13.6868 129.646 17.475C129.646 21.2632 132.717 24.3341 136.505 24.3341Z" fill="#C6DAFB"/>
<path d="M258.293 128.971C257.96 127.665 259.165 126.488 260.463 126.853L270.963 129.804C272.261 130.168 272.677 131.801 271.712 132.742L263.907 140.36C262.942 141.302 261.32 140.846 260.987 139.54L258.293 128.971Z" fill="#C6DAFB"/>
<path d="M28.9379 112.404C30.2444 112.073 31.4196 113.28 31.0533 114.577L28.089 125.073C27.7227 126.37 26.0896 126.785 25.1495 125.819L17.5416 118.004C16.6015 117.038 17.0593 115.416 18.3658 115.085L28.9379 112.404Z" fill="#C6DAFB"/>
<path d="M215.862 247.84C217.168 247.509 218.344 248.716 217.977 250.013L215.013 260.51C214.647 261.807 213.014 262.221 212.074 261.255L204.466 253.44C203.526 252.474 203.983 250.853 205.29 250.521L215.862 247.84Z" fill="#C6DAFB"/>
<path fill-rule="evenodd" clip-rule="evenodd" d="M267.464 78.479C269.629 78.479 271.383 76.7241 271.383 74.5594C271.383 72.3948 269.629 70.6399 267.464 70.6399C265.299 70.6399 263.544 72.3948 263.544 74.5594C263.544 76.7241 265.299 78.479 267.464 78.479ZM267.464 81.4186C271.252 81.4186 274.323 78.3476 274.323 74.5594C274.323 70.7713 271.252 67.7003 267.464 67.7003C263.676 67.7003 260.605 70.7713 260.605 74.5594C260.605 78.3476 263.676 81.4186 267.464 81.4186Z" fill="#C6DAFB"/>
<defs>
<filter id="filter0_d_1241_19437" x="0.119141" y="136.932" width="108.596" height="134.736" filterUnits="userSpaceOnUse" color-interpolation-filters="sRGB">
<feFlood flood-opacity="0" result="BackgroundImageFix"/>
<feColorMatrix in="SourceAlpha" type="matrix" values="0 0 0 0 0 0 0 0 0 0 0 0 0 0 0 0 0 0 127 0" result="hardAlpha"/>
<feOffset dx="3" dy="7"/>
<feGaussianBlur stdDeviation="7.5"/>
<feComposite in2="hardAlpha" operator="out"/>
<feColorMatrix type="matrix" values="0 0 0 0 0.104618 0 0 0 0 0.465612 0 0 0 0 0.545833 0 0 0 0.15 0"/>
<feBlend mode="normal" in2="BackgroundImageFix" result="effect1_dropShadow_1241_19437"/>
<feBlend mode="normal" in="SourceGraphic" in2="effect1_dropShadow_1241_19437" result="shape"/>
</filter>
<filter id="filter1_d_1241_19437" x="175.253" y="0" width="104.596" height="68.9565" filterUnits="userSpaceOnUse" color-interpolation-filters="sRGB">
<feFlood flood-opacity="0" result="BackgroundImageFix"/>
<feColorMatrix in="SourceAlpha" type="matrix" values="0 0 0 0 0 0 0 0 0 0 0 0 0 0 0 0 0 0 127 0" result="hardAlpha"/>
<feOffset dx="6" dy="4"/>
<feGaussianBlur stdDeviation="6.5"/>
<feComposite in2="hardAlpha" operator="out"/>
<feColorMatrix type="matrix" values="0 0 0 0 0.104618 0 0 0 0 0.465612 0 0 0 0 0.545833 0 0 0 0.09 0"/>
<feBlend mode="normal" in2="BackgroundImageFix" result="effect1_dropShadow_1241_19437"/>
<feBlend mode="normal" in="SourceGraphic" in2="effect1_dropShadow_1241_19437" result="shape"/>
</filter>
<filter id="filter2_b_1241_19437" x="169.446" y="129.389" width="150.172" height="150.172" filterUnits="userSpaceOnUse" color-interpolation-filters="sRGB">
<feFlood flood-opacity="0" result="BackgroundImageFix"/>
<feGaussianBlur in="BackgroundImageFix" stdDeviation="8.33757"/>
<feComposite in2="SourceAlpha" operator="in" result="effect1_backgroundBlur_1241_19437"/>
<feBlend mode="normal" in="SourceGraphic" in2="effect1_backgroundBlur_1241_19437" result="shape"/>
</filter>
<filter id="filter3_f_1241_19437" x="183.438" y="206.965" width="123.812" height="53.8198" filterUnits="userSpaceOnUse" color-interpolation-filters="sRGB">
<feFlood flood-opacity="0" result="BackgroundImageFix"/>
<feBlend mode="normal" in="SourceGraphic" in2="BackgroundImageFix" result="shape"/>
<feGaussianBlur stdDeviation="10.422" result="effect1_foregroundBlur_1241_19437"/>
</filter>
<linearGradient id="paint0_linear_1241_19437" x1="140.634" y1="-24.4738" x2="143.264" y2="426.396" gradientUnits="userSpaceOnUse">
<stop stop-color="white" stop-opacity="0"/>
<stop offset="1" stop-color="#E7F0FD"/>
</linearGradient>
<linearGradient id="paint1_linear_1241_19437" x1="47.3773" y1="179.071" x2="299.221" y2="183.548" gradientUnits="userSpaceOnUse">
<stop stop-color="white"/>
<stop offset="1" stop-color="#E9F0FD"/>
</linearGradient>
<linearGradient id="paint2_linear_1241_19437" x1="73.1217" y1="87.8479" x2="208.558" y2="87.8479" gradientUnits="userSpaceOnUse">
<stop stop-color="#DEEAFE"/>
<stop offset="1" stop-color="#F7FAFF"/>
</linearGradient>
<linearGradient id="paint3_linear_1241_19437" x1="73.1217" y1="124.444" x2="208.558" y2="124.444" gradientUnits="userSpaceOnUse">
<stop stop-color="#DEEAFE"/>
<stop offset="1" stop-color="#F7FAFF"/>
</linearGradient>
<linearGradient id="paint4_linear_1241_19437" x1="73.1217" y1="161.04" x2="208.558" y2="161.04" gradientUnits="userSpaceOnUse">
<stop stop-color="#DEEAFE"/>
<stop offset="1" stop-color="#F7FAFF"/>
</linearGradient>
<linearGradient id="paint5_linear_1241_19437" x1="73.1217" y1="197.637" x2="208.558" y2="197.637" gradientUnits="userSpaceOnUse">
<stop stop-color="#DEEAFE"/>
<stop offset="1" stop-color="#F7FAFF"/>
</linearGradient>
<linearGradient id="paint6_linear_1241_19437" x1="9.75923" y1="223.472" x2="160.403" y2="235.844" gradientUnits="userSpaceOnUse">
<stop stop-color="white"/>
<stop offset="1" stop-color="#E4EEFD"/>
</linearGradient>
<linearGradient id="paint7_linear_1241_19437" x1="179.894" y1="41.2121" x2="293.38" y2="44.4949" gradientUnits="userSpaceOnUse">
<stop stop-color="white"/>
<stop offset="1" stop-color="#E9F0FD"/>
</linearGradient>
<linearGradient id="paint8_linear_1241_19437" x1="84.1072" y1="194.416" x2="20.3069" y2="194.416" gradientUnits="userSpaceOnUse">
<stop stop-color="#ECF2FE"/>
<stop offset="1" stop-color="#E4EDFD"/>
</linearGradient>
<linearGradient id="paint9_linear_1241_19437" x1="84.0563" y1="234.878" x2="20.8042" y2="234.878" gradientUnits="userSpaceOnUse">
<stop stop-color="#ECF2FE"/>
<stop offset="1" stop-color="#E4EDFD"/>
</linearGradient>
<linearGradient id="paint10_linear_1241_19437" x1="84.0563" y1="213.612" x2="20.8042" y2="213.612" gradientUnits="userSpaceOnUse">
<stop stop-color="#ECF2FE"/>
<stop offset="1" stop-color="#E4EDFD"/>
</linearGradient>
<linearGradient id="paint11_linear_1241_19437" x1="67.8775" y1="173.15" x2="22.5457" y2="173.15" gradientUnits="userSpaceOnUse">
<stop offset="0.243799" stop-color="#F1F6FE"/>
<stop offset="1" stop-color="#E4EEFD"/>
</linearGradient>
<linearGradient id="paint12_linear_1241_19437" x1="244.532" y1="146.064" x2="303.39" y2="298.796" gradientUnits="userSpaceOnUse">
<stop stop-color="white"/>
<stop offset="1" stop-color="#E4EDFD"/>
</linearGradient>
<linearGradient id="paint13_linear_1241_19437" x1="214.637" y1="176.904" x2="278.063" y2="236.161" gradientUnits="userSpaceOnUse">
<stop stop-color="#FF698D"/>
<stop offset="1" stop-color="#FF3868"/>
</linearGradient>
</defs>
</svg>
