<svg width="301" height="258" viewBox="0 0 301 258" fill="none" xmlns="http://www.w3.org/2000/svg">
<path d="M203.324 11.6761C203.324 11.6761 162.23 63.7289 96.4802 32.6803C30.7303 1.63175 -35.0197 85.6455 21.5984 136.784C78.2165 187.923 22.8114 216.024 61.2754 247.365C104.992 282.987 143.053 210.753 177.754 227.19C254.342 263.469 311.08 249.107 298.296 207.1C275.854 133.363 247.158 128.566 269.074 90.2114C290.99 51.8566 242.62 -27.8904 203.324 11.6761Z" fill="#DEE9FF"/>
<path d="M149.428 122.938V232.144L64.6392 195.521L65.0436 86.7102L149.428 122.938Z" fill="#418DF9"/>
<path d="M149.43 123.003V232.209L233.806 196.851V87.0586L149.43 123.003Z" fill="#A2BDFF"/>
<path d="M149.428 122.938L234.218 87.4243L150.094 50.1348L64.6392 86.5365L149.428 122.938Z" fill="#0E84E5"/>
<path d="M41.4846 106.018L126.814 147.435C127.043 147.547 127.303 147.58 127.552 147.529C127.802 147.479 128.029 147.347 128.197 147.156L149.428 122.938L64.6391 86.5363L41.2947 104.04C41.135 104.16 41.0089 104.318 40.9283 104.501C40.8477 104.683 40.8154 104.883 40.8344 105.082C40.8535 105.281 40.9233 105.471 41.0372 105.635C41.151 105.799 41.3051 105.93 41.4846 106.018Z" fill="#699CFF"/>
<path d="M234.217 87.4242L257.766 108.714C257.909 108.844 258.018 109.008 258.083 109.19C258.147 109.373 258.165 109.569 258.135 109.76C258.104 109.951 258.027 110.132 257.909 110.286C257.791 110.439 257.637 110.561 257.46 110.64L173.183 148.253C172.958 148.353 172.706 148.38 172.465 148.328C172.224 148.277 172.006 148.15 171.842 147.967L149.428 122.938L234.217 87.4242Z" fill="#699CFF"/>
<path d="M150.094 50.1347L234.453 87.4242L246.585 84.6122C246.824 84.5569 247.039 84.4278 247.2 84.2432C247.361 84.0586 247.459 83.8279 247.481 83.584C247.503 83.3402 247.448 83.0955 247.323 82.8849C247.198 82.6744 247.01 82.5086 246.785 82.4112L169.755 49.034C169.586 48.9609 169.403 48.9288 169.22 48.9404L150.094 50.1347Z" fill="#699CFF"/>
<path d="M150.094 50.1346L66.2078 86.7101L55.6035 84.9281C55.358 84.8823 55.1337 84.7587 54.9638 84.5756C54.794 84.3925 54.6875 84.1596 54.6603 83.9113C54.633 83.6631 54.6863 83.4126 54.8124 83.197C54.9385 82.9814 55.1306 82.8121 55.3603 82.7141L134.294 48.6964C134.469 48.6223 134.659 48.5918 134.848 48.6077L150.094 50.1346Z" fill="#699CFF"/>
<path d="M237.525 215.182C249.091 215.182 258.468 205.805 258.468 194.238C258.468 182.672 249.091 173.295 237.525 173.295C225.958 173.295 216.581 182.672 216.581 194.238C216.581 205.805 225.958 215.182 237.525 215.182Z" fill="#418DF9" stroke="white" stroke-width="15" stroke-miterlimit="10"/>
<path d="M241.536 191.022C241.318 190.334 241.014 189.775 240.623 189.35C240.245 188.934 239.755 188.615 239.2 188.425C238.004 188.049 236.704 188.049 235.507 188.425C234.954 188.614 234.465 188.933 234.09 189.35C233.693 189.775 233.389 190.334 233.178 191.022C232.966 191.71 232.857 192.551 232.857 193.54V195.558C232.857 196.548 232.966 197.389 233.183 198.081C233.354 198.697 233.667 199.272 234.101 199.768C234.478 200.188 234.968 200.512 235.524 200.708C236.714 201.097 238.016 201.097 239.206 200.708C239.758 200.512 240.245 200.188 240.618 199.768C241.046 199.269 241.355 198.695 241.525 198.081C241.737 197.389 241.846 196.548 241.846 195.558H241.857V193.54C241.856 192.55 241.748 191.71 241.536 191.022ZM239.553 195.86C239.561 196.399 239.514 196.937 239.412 197.468C239.344 197.845 239.202 198.209 238.994 198.541C238.834 198.798 238.597 199.007 238.31 199.145C238.015 199.274 237.692 199.338 237.365 199.333C237.038 199.337 236.715 199.273 236.42 199.145C236.13 199.006 235.887 198.797 235.719 198.541C235.507 198.209 235.36 197.846 235.285 197.468C235.174 196.938 235.123 196.399 235.133 195.86V193.218C235.123 192.681 235.173 192.144 235.28 191.615C235.351 191.245 235.497 190.889 235.709 190.567C235.878 190.32 236.118 190.121 236.404 189.993C236.701 189.875 237.021 189.815 237.344 189.815C237.667 189.815 237.987 189.875 238.283 189.993C238.572 190.118 238.813 190.317 238.978 190.567C239.191 190.889 239.336 191.245 239.408 191.615C239.515 192.144 239.565 192.681 239.555 193.218V195.86H239.553Z" fill="white"/>
</svg>
