<svg width="289" height="289" viewBox="0 0 289 289" fill="none" xmlns="http://www.w3.org/2000/svg">
<g clip-path="url(#clip0_741_9536)">
<path opacity="0.8" d="M144.5 289C224.305 289 289 224.305 289 144.5C289 64.6949 224.305 0 144.5 0C64.6949 0 0 64.6949 0 144.5C0 224.305 64.6949 289 144.5 289Z" fill="url(#paint0_linear_741_9536)"/>
<path d="M261.626 43.7539H242.778C241.539 43.7539 240.534 44.7585 240.534 45.9977V47.3439C240.534 48.5831 241.539 49.5877 242.778 49.5877H261.626C262.865 49.5877 263.87 48.5831 263.87 47.3439V45.9977C263.87 44.7585 262.865 43.7539 261.626 43.7539Z" fill="#B6CBED"/>
<path d="M255.119 56.0947V37.2469C255.119 36.0077 254.114 35.0031 252.875 35.0031H251.529C250.29 35.0031 249.285 36.0077 249.285 37.2469V56.0947C249.285 57.3339 250.29 58.3385 251.529 58.3385H252.875C254.114 58.3385 255.119 57.3339 255.119 56.0947Z" fill="#B6CBED"/>
<path d="M18.848 221.686C16.8954 221.686 14.9866 221.107 13.3631 220.022C11.7395 218.938 10.4741 217.396 9.72686 215.592C8.97962 213.788 8.78411 211.803 9.16505 209.888C9.54599 207.972 10.4863 206.213 11.867 204.833C13.2477 203.452 15.0068 202.512 16.922 202.131C18.8371 201.75 20.8221 201.945 22.6261 202.692C24.4301 203.44 25.972 204.705 27.0568 206.329C28.1417 207.952 28.7207 209.861 28.7207 211.814C28.7207 214.432 27.6805 216.943 25.8291 218.795C23.9776 220.646 21.4664 221.686 18.848 221.686ZM18.848 206.168C17.7315 206.168 16.64 206.499 15.7116 207.12C14.7832 207.74 14.0597 208.622 13.6324 209.653C13.2051 210.685 13.0933 211.82 13.3111 212.915C13.5289 214.01 14.0666 215.016 14.8561 215.806C15.6457 216.595 16.6516 217.133 17.7467 217.351C18.8418 217.568 19.9769 217.457 21.0084 217.029C22.04 216.602 22.9217 215.878 23.542 214.95C24.1623 214.022 24.4934 212.93 24.4934 211.814C24.4934 210.316 23.8986 208.88 22.8399 207.822C21.7812 206.763 20.3453 206.168 18.848 206.168Z" fill="#B6CBED"/>
<path opacity="0.6" d="M82.392 87.4988L103.412 99.5165L124.952 87.5527L145.335 99.5524L165.08 88.145L185.427 99.5255L206.177 87.4898L233.857 101.177V30.9553C231.523 29.1124 229.13 27.3443 226.677 25.651V89.6169L205.917 79.3494L185.382 91.2594L165.044 79.8789L145.344 91.2325L125.033 79.2865L103.493 91.2773L82.5715 79.3494L62.3056 89.5721V25.651C59.8524 27.3503 57.459 29.1184 55.1255 30.9553V101.222L82.392 87.4988Z" fill="white"/>
<g opacity="0.6">
<path d="M186.881 40.1638H104.911V47.3439H186.881V40.1638Z" fill="white"/>
</g>
<g opacity="0.6">
<path d="M175.967 250.191H115.833V257.372H175.967V250.191Z" fill="white"/>
</g>
<path d="M186.27 90.6491H102.73C100.947 90.6562 99.2385 91.3676 97.9777 92.6285C96.7169 93.8893 96.0054 95.5974 95.9983 97.3804V191.171C95.9985 191.887 96.2098 192.587 96.6057 193.184C97.0016 193.781 97.5647 194.248 98.2245 194.527C98.8842 194.805 99.6115 194.883 100.315 194.751C101.019 194.619 101.669 194.282 102.182 193.783L109.578 186.683C110.252 186.034 111.149 185.667 112.085 185.657C113.02 185.647 113.925 185.995 114.613 186.629L126.065 197.355C126.744 198.008 127.652 198.369 128.594 198.359C129.536 198.348 130.436 197.969 131.1 197.301L141.951 186.746C142.631 186.077 143.546 185.703 144.5 185.703C145.454 185.703 146.369 186.077 147.049 186.746L157.963 197.238C158.661 197.9 159.59 198.263 160.551 198.251C161.513 198.24 162.433 197.854 163.115 197.175L173.301 186.809C173.958 186.143 174.844 185.753 175.779 185.72C176.713 185.686 177.625 186.012 178.327 186.629L186.881 194.33C187.407 194.797 188.057 195.103 188.752 195.212C189.448 195.322 190.16 195.229 190.804 194.945C191.448 194.662 191.998 194.2 192.388 193.613C192.777 193.027 192.99 192.341 193.002 191.638V97.3984C192.995 95.6153 192.283 93.9073 191.022 92.6464C189.762 91.3856 188.053 90.6741 186.27 90.667V90.6491Z" fill="url(#paint1_linear_741_9536)"/>
<path d="M156.168 113.042H118.472C116.489 113.042 114.882 114.649 114.882 116.632C114.882 118.615 116.489 120.222 118.472 120.222H156.168C158.151 120.222 159.758 118.615 159.758 116.632C159.758 114.649 158.151 113.042 156.168 113.042Z" fill="white"/>
<path d="M156.168 132.787H118.472C116.489 132.787 114.882 134.395 114.882 136.377C114.882 138.36 116.489 139.968 118.472 139.968H156.168C158.151 139.968 159.758 138.36 159.758 136.377C159.758 134.395 158.151 132.787 156.168 132.787Z" fill="white"/>
<path d="M138.217 152.533H118.472C116.489 152.533 114.882 154.14 114.882 156.123C114.882 158.106 116.489 159.713 118.472 159.713H138.217C140.2 159.713 141.808 158.106 141.808 156.123C141.808 154.14 140.2 152.533 138.217 152.533Z" fill="white"/>
<path opacity="0.6" d="M80.6777 274.164C83.0352 275.331 85.4286 276.435 87.8579 277.476V230.015H200.945V277.584C203.377 276.551 205.764 275.447 208.125 274.29V222.862H80.6777V274.164Z" fill="white"/>
</g>
<defs>
<linearGradient id="paint0_linear_741_9536" x1="144.5" y1="289" x2="144.5" y2="0" gradientUnits="userSpaceOnUse">
<stop stop-color="#E9EDF3"/>
<stop offset="0.06" stop-color="#EDF3FE"/>
<stop offset="1" stop-color="white"/>
</linearGradient>
<linearGradient id="paint1_linear_741_9536" x1="144.5" y1="198.351" x2="144.5" y2="90.6491" gradientUnits="userSpaceOnUse">
<stop stop-color="#E3EDFD"/>
<stop offset="1" stop-color="#DEEAFE"/>
</linearGradient>
<clipPath id="clip0_741_9536">
<rect width="289" height="289" fill="white"/>
</clipPath>
</defs>
</svg>
